<svg id="Layer_1" data-name="Layer 1" xmlns="http://www.w3.org/2000/svg" viewBox="0 0 794.95 597.12"><defs><style>.cls-1,.cls-7{fill:#f7f7f7;}.cls-16,.cls-2,.cls-3,.cls-6{fill:#fff;}.cls-2{stroke:#ccc;}.cls-10,.cls-11,.cls-12,.cls-13,.cls-14,.cls-15,.cls-16,.cls-19,.cls-2,.cls-20,.cls-21,.cls-23,.cls-24,.cls-25,.cls-7,.cls-8,.cls-9{stroke-miterlimit:10;}.cls-17,.cls-4,.cls-5,.cls-8{fill:none;}.cls-10,.cls-11,.cls-12,.cls-13,.cls-14,.cls-15,.cls-16,.cls-17,.cls-18,.cls-20,.cls-22,.cls-23,.cls-24,.cls-4,.cls-5,.cls-6,.cls-7,.cls-8{stroke:#333;}.cls-17,.cls-18,.cls-22,.cls-4,.cls-5,.cls-6{stroke-linecap:round;stroke-linejoin:round;}.cls-5{stroke-dasharray:2.01 5.03;}.cls-15,.cls-9{fill:#0b5cce;}.cls-19,.cls-21,.cls-25,.cls-9{stroke:#000;}.cls-10{fill:#f1f5ff;}.cls-11,.cls-21{fill:#d4472c;}.cls-12{fill:#fff8cd;}.cls-13{fill:#a4a3a3;}.cls-14{fill:#a3a3a3;}.cls-17{stroke-dasharray:2 5;}.cls-18{fill:#e3e3e3;}.cls-19{fill:#2457bc;}.cls-20{fill:#111;}.cls-22{fill:#66bac4;}.cls-24{fill:#999;}.cls-25{fill:#212121;}.cls-26{fill:#333;}</style></defs><title>ABOUT US IMAGE</title><circle class="cls-1" cx="397.48" cy="298.56" r="251"/><circle class="cls-2" cx="397.48" cy="298.56" r="229.97"/><path class="cls-3" d="M138.53,333.38A48.58,48.58,0,1,1,214.25,332"/><path class="cls-4" d="M138.53,333.38l-.63-.77"/><path class="cls-5" d="M135,328.53a48.58,48.58,0,1,1,81.34.58"/><path class="cls-4" d="M214.85,331.17l-.6.8"/><path class="cls-6" d="M134.45,339.48A55.66,55.66,0,1,1,219,337.42"/><path class="cls-6" d="M144.9,329.33a41.11,41.11,0,1,1,62.64-.94"/><rect class="cls-7" x="295.2" y="258.19" width="385.88" height="144.75"/><polyline class="cls-7" points="128.55 393.5 128.55 442.28 225.97 442.28 225.97 393.5"/><path class="cls-8" d="M228,370.68c0-27.14,3.86-24.78-14.23-30.28"/><path class="cls-9" d="M193.62,328l9.6.16a18,18,0,0,1,18,18V379H133.14V346.23a18,18,0,0,1,18-18h10.69"/><polyline class="cls-10" points="193.62 338.59 198.24 328.2 155.69 328.2 177.2 375.41 193.62 338.59"/><polyline class="cls-11" points="166.97 331.35 171.69 341.97 169.53 358.57 177.2 375.41 184.67 358.49 181.92 341.97 185.46 334.1"/><line class="cls-8" x1="171.69" y1="341.97" x2="181.92" y2="341.97"/><path class="cls-12" d="M199.23,293.2v25.08a10.6,10.6,0,0,1-5.14,9.07L179,336a4.26,4.26,0,0,1-4.32-.05l-14.35-8.61a10.58,10.58,0,0,1-5.14-9.07l-.39-13.68-1.58-9.44,5.51-11.41,37.76.79Z"/><path class="cls-13" d="M184.16,332.18l1.52-3.89a2.82,2.82,0,0,1,3.47-1.66l23.54,7.42a2.81,2.81,0,0,1,1.84,3.51l-1.46,4.76a2.82,2.82,0,0,1-3.63,1.83l-23.59-8.29A2.82,2.82,0,0,1,184.16,332.18Z"/><path class="cls-14" d="M209.44,379c1.47-5.19,7-9.05,13.58-9.05s12.12,3.86,13.59,9"/><path class="cls-13" d="M177.76,272.35c20,.38,29.86,20.35,21.8,33.74a.3.3,0,0,1-.55-.16c.13-7.79,1.55-13.38-4.38-20.18a.68.68,0,0,0-1.13.2c-3.77,9.13-12.32,8-15.74,8h-1.35c-3.37,0-11.75,1.07-15.59-7.68a.92.92,0,0,0-1.55-.23c-5.62,6.65-4.24,12.19-4.11,19.86a.3.3,0,0,1-.55.16c-8.06-13.39,1.79-33.36,21.8-33.74Z"/><circle class="cls-6" cx="135.11" cy="264.09" r="3.54"/><circle class="cls-15" cx="228.33" cy="317.98" r="3.54"/><circle class="cls-6" cx="235.02" cy="435.2" r="3.54"/><circle class="cls-15" cx="264.13" cy="347.08" r="3.54"/><path class="cls-4" d="M231.87,318h12.59c6.29,0,7.28-7.28,7.28-7.28v-23c0-4.72,4.52-7.87,7.67-7.87"/><circle class="cls-6" cx="263.74" cy="280.61" r="4.33"/><circle class="cls-6" cx="263.74" cy="280.61" r="1.97"/><circle class="cls-11" cx="264.13" cy="321.91" r="6.29"/><circle class="cls-16" cx="264.13" cy="321.91" r="2.75"/><path class="cls-4" d="M268.35,274a7.86,7.86,0,0,1,.18,13.16"/><path class="cls-4" d="M270.43,271.56a10.74,10.74,0,0,1,.25,18"/><path class="cls-4" d="M272.93,269.2a13.57,13.57,0,0,1,.31,22.7"/><path class="cls-4" d="M275,266.84a16.4,16.4,0,0,1,.37,27.42"/><line class="cls-17" x1="264.13" y1="286.51" x2="264.13" y2="312.86"/><line class="cls-17" x1="264.13" y1="330.56" x2="264.13" y2="343.15"/><line class="cls-17" x1="264.13" y1="352.59" x2="264.13" y2="361.25"/><polygon class="cls-15" points="257.05 362.82 270.82 362.82 264.13 373.83 257.05 362.82"/><polygon class="cls-11" points="547.34 384.89 547.34 396.45 538.1 390.84 547.34 384.89"/><path class="cls-4" d="M238.56,435.2h22.82S272,434.41,272,424.57V388.39"/><polyline class="cls-4" points="265.31 388.39 272 379.73 278.68 388.39"/><rect class="cls-11" x="323.13" y="312.86" width="16.13" height="40.52"/><rect class="cls-18" x="345.16" y="300.67" width="16.13" height="52.71"/><rect class="cls-19" x="369.55" y="285.33" width="16.13" height="68.05"/><rect class="cls-20" x="393.54" y="292.02" width="16.13" height="61.36"/><rect class="cls-4" x="452.15" y="269.99" width="5.11" height="95.19"/><rect class="cls-9" x="523.15" y="212.75" width="7.08" height="132.56" transform="translate(247.66 805.73) rotate(-90)"/><rect class="cls-21" x="510.96" y="232.42" width="7.08" height="108.17" transform="translate(227.99 801.01) rotate(-90)"/><rect class="cls-9" x="515.68" y="242.26" width="7.08" height="117.61" transform="translate(218.16 820.28) rotate(-90)"/><rect class="cls-21" x="512.92" y="252.48" width="7.08" height="112.11" transform="translate(207.93 825) rotate(-90)"/><rect class="cls-9" x="493.26" y="285.52" width="7.08" height="72.77" transform="translate(174.89 818.71) rotate(-90)"/><rect class="cls-21" x="501.12" y="285.13" width="7.08" height="88.5" transform="translate(175.28 834.05) rotate(-90)"/><rect class="cls-9" x="505.65" y="294.77" width="7.08" height="97.55" transform="translate(165.64 852.73) rotate(-90)"/><rect class="cls-21" x="487.95" y="319.94" width="7.08" height="62.15" transform="translate(140.47 842.5) rotate(-90)"/><path class="cls-4" d="M327.46,287.3s25.17,6.29,37.76-14.17"/><polyline class="cls-4" points="359.32 273.13 366.79 270.77 366.79 279.04"/><line class="cls-4" x1="426.58" y1="309.32" x2="432.09" y2="309.32"/><polyline class="cls-4" points="430.52 304.6 436.42 309.32 430.52 313.65"/><line class="cls-4" x1="566.22" y1="360.85" x2="571.73" y2="360.85"/><polyline class="cls-4" points="570.16 356.13 576.06 360.85 570.16 365.18"/><circle class="cls-9" cx="659.84" cy="297.92" r="4.33"/><circle class="cls-4" cx="650.4" cy="277.46" r="8.26"/><circle class="cls-11" cx="627.19" cy="288.87" r="12.98"/><circle class="cls-4" cx="591" cy="296.74" r="3.15"/><path class="cls-4" d="M591,299.88c.79,5.51,4.72,9.05,13,8.66"/><circle class="cls-4" cx="610.28" cy="308.14" r="2.36"/><circle class="cls-4" cx="610.28" cy="308.14" r="6.29"/><rect class="cls-18" x="588.64" y="321.12" width="47.6" height="11.8"/><line class="cls-4" x1="588.64" y1="342.76" x2="664.17" y2="342.76"/><line class="cls-4" x1="588.64" y1="346.3" x2="664.17" y2="346.3"/><line class="cls-4" x1="588.64" y1="349.84" x2="664.17" y2="349.84"/><line class="cls-4" x1="588.64" y1="358.1" x2="664.17" y2="358.1"/><line class="cls-4" x1="588.64" y1="361.64" x2="664.17" y2="361.64"/><line class="cls-4" x1="588.64" y1="365.18" x2="664.17" y2="365.18"/><line class="cls-4" x1="588.64" y1="371.08" x2="664.17" y2="371.08"/><line class="cls-4" x1="588.64" y1="374.62" x2="664.17" y2="374.62"/><line class="cls-4" x1="588.64" y1="378.16" x2="664.17" y2="378.16"/><line class="cls-22" x1="547.34" y1="390.16" x2="587.07" y2="390.16"/><polygon class="cls-15" points="672.23 437.36 672.23 425.8 681.48 431.42 672.23 437.36"/><line class="cls-22" x1="672.03" y1="431.66" x2="633.49" y2="431.66"/><circle class="cls-23" cx="589.43" cy="390.35" r="0.79"/><circle class="cls-23" cx="592.97" cy="390.35" r="0.79"/><circle class="cls-23" cx="610.67" cy="390.35" r="0.79"/><circle class="cls-23" cx="614.21" cy="390.35" r="0.79"/><circle class="cls-23" cx="596.12" cy="390.35" r="0.79"/><circle class="cls-23" cx="628.37" cy="390.35" r="0.79"/><circle class="cls-23" cx="622.87" cy="431.66" r="0.79"/><circle class="cls-23" cx="631.91" cy="390.35" r="0.79"/><circle class="cls-23" cx="635.06" cy="390.35" r="0.79"/><circle class="cls-23" cx="638.6" cy="390.35" r="0.79"/><circle class="cls-23" cx="642.14" cy="390.35" r="0.79"/><circle class="cls-23" cx="645.29" cy="390.35" r="0.79"/><circle class="cls-23" cx="648.83" cy="390.35" r="0.79"/><circle class="cls-23" cx="588.64" cy="431.66" r="0.79"/><circle class="cls-23" cx="592.18" cy="431.66" r="0.79"/><circle class="cls-23" cx="595.33" cy="431.66" r="0.79"/><circle class="cls-23" cx="598.87" cy="431.66" r="0.79"/><circle class="cls-23" cx="602.41" cy="431.66" r="0.79"/><circle class="cls-23" cx="605.56" cy="431.66" r="0.79"/><circle class="cls-23" cx="609.1" cy="431.66" r="0.79"/><circle class="cls-23" cx="557.57" cy="431.66" r="0.79"/><circle class="cls-23" cx="560.72" cy="431.66" r="0.79"/><circle class="cls-23" cx="564.26" cy="431.66" r="0.79"/><circle class="cls-23" cx="567.8" cy="431.66" r="0.79"/><circle class="cls-23" cx="570.94" cy="431.66" r="0.79"/><circle class="cls-23" cx="574.48" cy="431.66" r="0.79"/><circle class="cls-23" cx="652.37" cy="390.35" r="0.79"/><circle class="cls-23" cx="655.51" cy="390.35" r="0.79"/><circle class="cls-23" cx="659.05" cy="390.35" r="0.79"/><circle class="cls-23" cx="662.2" cy="390.35" r="0.79"/><circle class="cls-15" cx="603.98" cy="389.96" r="4.33"/><circle class="cls-15" cx="621.69" cy="389.96" r="4.33"/><circle class="cls-15" cx="615.39" cy="431.66" r="4.33"/><circle class="cls-4" cx="581.17" cy="431.66" r="4.33"/><circle class="cls-11" cx="550.49" cy="431.66" r="3.54"/><circle class="cls-15" cx="629.16" cy="431.66" r="4.33"/><line class="cls-4" x1="538.69" y1="419.85" x2="542.62" y2="419.85"/><line class="cls-4" x1="549.31" y1="419.85" x2="553.24" y2="419.85"/><line class="cls-4" x1="559.93" y1="419.85" x2="563.86" y2="419.85"/><line class="cls-4" x1="570.55" y1="419.85" x2="574.48" y2="419.85"/><line class="cls-4" x1="581.17" y1="419.85" x2="585.1" y2="419.85"/><line class="cls-4" x1="591.79" y1="419.85" x2="595.72" y2="419.85"/><line class="cls-4" x1="602.41" y1="419.85" x2="606.34" y2="419.85"/><line class="cls-4" x1="613.03" y1="419.85" x2="616.97" y2="419.85"/><line class="cls-4" x1="623.65" y1="419.85" x2="627.59" y2="419.85"/><line class="cls-4" x1="634.27" y1="419.85" x2="638.21" y2="419.85"/><line class="cls-4" x1="644.89" y1="419.85" x2="648.83" y2="419.85"/><path class="cls-11" d="M341.67,448.18c18.49.34,35-13.08,35-13.08l0-12.2C376.58,410.71,364,410,364,410l-22.42.06-22.42.06s-12.59.82-12.56,13l0,12.19S323.19,448.62,341.67,448.18Z"/><polyline class="cls-12" points="354.6 397.83 354.6 410.02 328.25 410.02 328.25 397.83"/><path class="cls-9" d="M419.56,448.18c18.48.34,35-13.08,35-13.08l0-12.2c0-12.19-12.62-12.94-12.62-12.94l-22.42.06-22.42.06s-12.59.82-12.55,13l0,12.19S401.07,448.62,419.56,448.18Z"/><polyline class="cls-12" points="432.48 397.83 432.48 410.02 406.13 410.02 406.13 397.83"/><path class="cls-24" d="M420.28,363.61c20.46,0,24.39,21.11,13,37.1-4.23,4.77-10.33,6.67-12.33,7.19a5.11,5.11,0,0,1-1.23.15h0a5.13,5.13,0,0,1-1.24-.15c-2-.52-8.1-2.42-12.33-7.19-11.41-16-7.47-37.1,13-37.1Z"/><path class="cls-24" d="M341.22,363.8c20.45,0,24.38,21.11,13,37.11-4.23,4.77-10.34,6.67-12.33,7.19a5.13,5.13,0,0,1-1.24.15h0a5.19,5.19,0,0,1-1.24-.15c-2-.52-8.1-2.42-12.32-7.19-11.41-16-7.48-37.11,13-37.11Z"/><path class="cls-25" d="M497.44,448.18c18.49.34,35-13.08,35-13.08l0-12.2c0-12.19-12.63-12.94-12.63-12.94l-22.42.06-22.42.06s-12.58.82-12.55,13l0,12.19S479,448.62,497.44,448.18Z"/><polyline class="cls-12" points="510.37 397.83 510.37 410.02 484.01 410.02 484.01 397.83"/><path class="cls-24" d="M498.16,363.61c20.46,0,24.39,21.11,13,37.1-4.23,4.77-10.34,6.67-12.33,7.19a5.19,5.19,0,0,1-1.24.15h0a5.13,5.13,0,0,1-1.24-.15c-2-.52-8.1-2.42-12.33-7.19-11.4-16-7.47-37.1,13-37.1Z"/><rect class="cls-7" x="113.48" y="378.95" width="127.45" height="14.55"/><line class="cls-4" x1="116.62" y1="390.35" x2="125.28" y2="381.7"/><line class="cls-4" x1="124.1" y1="390.35" x2="132.75" y2="381.7"/><line class="cls-8" x1="131.57" y1="390.35" x2="140.22" y2="381.7"/><line class="cls-8" x1="139.04" y1="390.35" x2="147.7" y2="381.7"/><line class="cls-8" x1="146.52" y1="390.35" x2="155.17" y2="381.7"/><line class="cls-8" x1="153.99" y1="390.35" x2="162.64" y2="381.7"/><line class="cls-8" x1="161.46" y1="390.35" x2="170.12" y2="381.7"/><line class="cls-8" x1="168.94" y1="390.35" x2="177.59" y2="381.7"/><line class="cls-8" x1="176.41" y1="390.35" x2="185.07" y2="381.7"/><line class="cls-8" x1="183.89" y1="390.35" x2="192.54" y2="381.7"/><line class="cls-8" x1="191.36" y1="390.35" x2="200.01" y2="381.7"/><line class="cls-8" x1="198.83" y1="390.35" x2="207.49" y2="381.7"/><line class="cls-8" x1="206.31" y1="390.35" x2="214.96" y2="381.7"/><line class="cls-8" x1="213.78" y1="390.35" x2="222.43" y2="381.7"/><line class="cls-8" x1="221.25" y1="390.35" x2="229.91" y2="381.7"/><line class="cls-8" x1="228.73" y1="390.35" x2="237.38" y2="381.7"/><path class="cls-26" d="M26.22,154.18h5.39v9.7h9.94v-9.7h5.39v24.51H41.55v-9.84H31.61v9.84H26.22Z"/><path class="cls-26" d="M52.43,168.19v-14h5.39v13.87c0,4,2,6,5.29,6s5.28-2,5.28-5.88v-14h5.39V168c0,7.42-4.16,11.06-10.74,11.06S52.43,175.4,52.43,168.19Z"/><path class="cls-26" d="M79.28,154.18h5l11.48,15.09V154.18h5.32v24.51H96.46L84.6,163.11v15.58H79.28Z"/><path class="cls-26" d="M106.92,154.18h9.56c7.7,0,13,5.29,13,12.26s-5.32,12.25-13,12.25h-9.56Zm9.56,19.64a7.39,7.39,0,1,0,0-14.77h-4.16v14.77Z"/><path class="cls-26" d="M134.29,154.18H145.5c3.11,0,5.53.88,7.14,2.49a7.76,7.76,0,0,1,2.1,5.67,7.62,7.62,0,0,1-5.25,7.6l6,8.75h-6.3l-5.32-7.84h-4.16v7.84h-5.4Zm10.86,11.91c2.62,0,4.13-1.4,4.13-3.54,0-2.31-1.61-3.5-4.24-3.5h-5.35v7Z"/><path class="cls-26" d="M159.6,154.18h18.48V159H165v5h11.55v4.8H165v5.14h13.3v4.8H159.6Z"/><path class="cls-26" d="M183.05,154.18h9.56c7.7,0,13,5.29,13,12.26s-5.32,12.25-13,12.25h-9.56Zm9.56,19.64a7.39,7.39,0,0,0,0-14.77h-4.17v14.77Z"/><path class="cls-26" d="M208.39,175.12l3.18-3.82a11.27,11.27,0,0,0,7.32,3c2.21,0,3.54-.88,3.54-2.38s-.84-2.07-4.94-3.12c-4.94-1.26-8.12-2.62-8.12-7.56,0-4.45,3.57-7.39,8.58-7.39a14.17,14.17,0,0,1,9.1,3.12l-2.8,4.06a11.54,11.54,0,0,0-6.37-2.41c-2.07,0-3.16.94-3.16,2.2,0,1.61,1.06,2.14,5.29,3.22,5,1.3,7.77,3.08,7.77,7.42,0,4.87-3.71,7.6-9,7.6A15.63,15.63,0,0,1,208.39,175.12Z"/><path class="cls-26" d="M241.88,166.44a13,13,0,1,1,13,12.67A12.68,12.68,0,0,1,241.88,166.44Zm20.41,0a7.45,7.45,0,0,0-7.42-7.71c-4.34,0-7.35,3.44-7.35,7.71a7.44,7.44,0,0,0,7.42,7.7C259.28,174.14,262.29,170.71,262.29,166.44Z"/><path class="cls-26" d="M272.72,154.18h18.66v4.91H278.11v5.21H289.8v4.9H278.11v9.49h-5.39Z"/><path class="cls-26" d="M304.5,175.12l3.18-3.82a11.27,11.27,0,0,0,7.32,3c2.2,0,3.53-.88,3.53-2.38s-.84-2.07-4.93-3.12c-4.94-1.26-8.12-2.62-8.12-7.56,0-4.45,3.57-7.39,8.57-7.39a14.15,14.15,0,0,1,9.1,3.12l-2.8,4.06A11.51,11.51,0,0,0,314,158.6c-2.06,0-3.15.94-3.15,2.2,0,1.61,1.05,2.14,5.29,3.22,5,1.3,7.77,3.08,7.77,7.42,0,4.87-3.71,7.6-9,7.6A15.6,15.6,0,0,1,304.5,175.12Z"/><path class="cls-26" d="M328.58,154.18h18.48V159H333.93v5h11.56v4.8H333.93v5.14h13.31v4.8H328.58Z"/><path class="cls-26" d="M352,154.18h5.81l6.44,10.37,6.44-10.37h5.81v24.51h-5.36v-16l-6.89,10.47h-.14l-6.83-10.36v15.89H352Z"/><path class="cls-26" d="M382.65,154.18H388v24.51h-5.39Z"/><path class="cls-26" d="M394.17,154.18h5l11.48,15.09V154.18h5.32v24.51h-4.59l-11.86-15.58v15.58h-5.32Z"/><path class="cls-26" d="M430.22,154h5l10.5,24.68h-5.64l-2.24-5.5H427.45l-2.24,5.5h-5.49Zm5.67,14.42-3.26-8-3.25,8Z"/><path class="cls-26" d="M449.47,154.18h11.2c3.11,0,5.53.88,7.14,2.49a7.76,7.76,0,0,1,2.1,5.67,7.62,7.62,0,0,1-5.25,7.6l6,8.75h-6.3L459,170.85h-4.16v7.84h-5.39Zm10.85,11.91c2.62,0,4.13-1.4,4.13-3.54,0-2.31-1.61-3.5-4.24-3.5h-5.35v7Z"/><path class="cls-26" d="M473.09,175.12l3.19-3.82a11.22,11.22,0,0,0,7.31,3c2.21,0,3.54-.88,3.54-2.38s-.84-2.07-4.94-3.12c-4.93-1.26-8.12-2.62-8.12-7.56,0-4.45,3.57-7.39,8.58-7.39a14.17,14.17,0,0,1,9.1,3.12L489,161a11.54,11.54,0,0,0-6.37-2.41c-2.07,0-3.15.94-3.15,2.2,0,1.61,1.05,2.14,5.28,3.22,5,1.3,7.77,3.08,7.77,7.42,0,4.87-3.71,7.6-9,7.6A15.63,15.63,0,0,1,473.09,175.12Z"/><path class="cls-26" d="M521.32,176.31a11.05,11.05,0,0,1-7.17,2.73c-4.69,0-8.23-2.73-8.23-7.14,0-3.12,1.68-5.32,4.76-6.72a8.23,8.23,0,0,1-1.71-5c0-3.35,2.69-6.44,7.42-6.44,4.16,0,6.89,2.73,6.89,6.23,0,3.3-2.1,5.22-5.14,6.41l3.25,3.26c.81-1.26,1.61-2.7,2.38-4.2l4,2.17a47.56,47.56,0,0,1-3.22,5.18l3.6,3.6-4,2.77Zm-3-3.08-4.69-4.76a3.67,3.67,0,0,0-2.27,3.29c0,1.71,1.43,2.87,3.43,2.87A5.83,5.83,0,0,0,518.31,173.23Zm.28-13a2.16,2.16,0,0,0-2.31-2.28,2.33,2.33,0,0,0-2.38,2.56,4.39,4.39,0,0,0,1.44,3C517.47,162.76,518.59,161.85,518.59,160.24Z"/><path class="cls-26" d="M548.24,159.15h-7.46v-5h20.3v5h-7.45v19.54h-5.39Z"/><path class="cls-26" d="M565.21,154.18h5.39v9.7h9.94v-9.7h5.39v24.51h-5.39v-9.84H570.6v9.84h-5.39Z"/><path class="cls-26" d="M590.73,166.44a13,13,0,1,1,13,12.67A12.67,12.67,0,0,1,590.73,166.44Zm20.4,0a7.45,7.45,0,0,0-7.42-7.71c-4.34,0-7.35,3.44-7.35,7.71a7.44,7.44,0,0,0,7.42,7.7C608.12,174.14,611.13,170.71,611.13,166.44Z"/><path class="cls-26" d="M621.18,168.19v-14h5.39v13.87c0,4,2,6,5.28,6s5.29-2,5.29-5.88v-14h5.39V168c0,7.42-4.17,11.06-10.75,11.06S621.18,175.4,621.18,168.19Z"/><path class="cls-26" d="M646.34,175.12l3.19-3.82a11.22,11.22,0,0,0,7.31,3c2.21,0,3.54-.88,3.54-2.38s-.84-2.07-4.94-3.12c-4.93-1.26-8.12-2.62-8.12-7.56,0-4.45,3.57-7.39,8.58-7.39A14.17,14.17,0,0,1,665,157L662.2,161a11.54,11.54,0,0,0-6.37-2.41c-2.07,0-3.15.94-3.15,2.2,0,1.61,1.05,2.14,5.28,3.22,5,1.3,7.77,3.08,7.77,7.42,0,4.87-3.71,7.6-9,7.6A15.63,15.63,0,0,1,646.34,175.12Z"/><path class="cls-26" d="M678.3,154h5l10.5,24.68h-5.64l-2.24-5.5H675.53l-2.24,5.5h-5.5ZM684,168.43l-3.26-8-3.25,8Z"/><path class="cls-26" d="M697.54,154.18h5L714,169.27V154.18h5.32v24.51h-4.59l-11.86-15.58v15.58h-5.33Z"/><path class="cls-26" d="M725.19,154.18h9.56c7.7,0,13,5.29,13,12.26s-5.32,12.25-13,12.25h-9.56Zm9.56,19.64a7.39,7.39,0,1,0,0-14.77h-4.17v14.77Z"/><path class="cls-26" d="M750.53,175.12l3.19-3.82a11.25,11.25,0,0,0,7.32,3c2.2,0,3.53-.88,3.53-2.38s-.84-2.07-4.93-3.12c-4.94-1.26-8.13-2.62-8.13-7.56,0-4.45,3.57-7.39,8.58-7.39a14.15,14.15,0,0,1,9.1,3.12l-2.8,4.06A11.51,11.51,0,0,0,760,158.6c-2.06,0-3.15.94-3.15,2.2,0,1.61,1,2.14,5.29,3.22,5,1.3,7.77,3.08,7.77,7.42,0,4.87-3.71,7.6-9,7.6A15.63,15.63,0,0,1,750.53,175.12Z"/><path class="cls-26" d="M102.31,208.39a13,13,0,1,1,13,12.67A12.67,12.67,0,0,1,102.31,208.39Zm20.4,0a7.44,7.44,0,0,0-7.42-7.7c-4.34,0-7.35,3.43-7.35,7.7a7.44,7.44,0,0,0,7.42,7.7C119.7,216.09,122.71,212.66,122.71,208.39Z"/><path class="cls-26" d="M133.14,196.14H151.8V201H138.53v5.22h11.69v4.9H138.53v9.49h-5.39Z"/><path class="cls-26" d="M166.6,196.14h10c5.85,0,9.38,3.47,9.38,8.54,0,5.67-4.41,8.61-9.9,8.61H172v7.36H166.6Zm9.66,12.36c2.7,0,4.27-1.61,4.27-3.78,0-2.42-1.68-3.71-4.37-3.71H172v7.49Z"/><path class="cls-26" d="M189.59,210.14v-14H195V210c0,4,2,6.06,5.28,6.06s5.29-2,5.29-5.88v-14H211V210c0,7.42-4.17,11.06-10.75,11.06S189.59,217.35,189.59,210.14Z"/><path class="cls-26" d="M216.44,196.14h11.38c2.8,0,5,.77,6.4,2.17a6,6,0,0,1-1.54,9.52c2.84,1.09,4.59,2.73,4.59,6.09,0,4.48-3.64,6.73-9.17,6.73H216.44Zm10.22,9.91c2.38,0,3.89-.77,3.89-2.66,0-1.61-1.26-2.52-3.54-2.52h-5.32v5.18Zm1.44,9.87c2.38,0,3.81-.84,3.81-2.73,0-1.65-1.22-2.66-4-2.66h-6.23v5.39Z"/><path class="cls-26" d="M241.71,196.14h5.39v19.6h12.22v4.91H241.71Z"/><path class="cls-26" d="M263.62,196.14H269v24.51h-5.39Z"/><path class="cls-26" d="M274.05,208.39a12.45,12.45,0,0,1,12.77-12.67,12.32,12.32,0,0,1,9.49,4l-3.22,3.71c-1.89-1.71-3.5-2.73-6.3-2.73-4.13,0-7.11,3.43-7.11,7.7s2.91,7.7,7.11,7.7c2.8,0,4.51-1.12,6.44-2.87l3.43,3.68c-2.52,2.7-5.32,4.16-10.05,4.16A12.38,12.38,0,0,1,274.05,208.39Z"/><path class="cls-26" d="M309.78,217.07l3.19-3.81a11.21,11.21,0,0,0,7.31,3c2.21,0,3.54-.87,3.54-2.38,0-1.36-.84-2.06-4.94-3.11-4.93-1.26-8.12-2.63-8.12-7.56,0-4.45,3.57-7.39,8.58-7.39a14.17,14.17,0,0,1,9.1,3.12l-2.8,4.06a11.48,11.48,0,0,0-6.37-2.42c-2.07,0-3.15.95-3.15,2.21,0,1.61,1.05,2.13,5.28,3.22,5,1.29,7.77,3.08,7.77,7.42,0,4.87-3.71,7.59-9,7.59A15.58,15.58,0,0,1,309.78,217.07Z"/><path class="cls-26" d="M332.78,208.39A12.92,12.92,0,0,1,355,199.71l-3.22,3.71c-1.89-1.71-3.5-2.73-6.3-2.73-4.13,0-7.11,3.43-7.11,7.7s2.91,7.7,7.11,7.7c2.8,0,4.51-1.12,6.44-2.87l3.43,3.68c-2.52,2.7-5.32,4.16-10.05,4.16A12.38,12.38,0,0,1,332.78,208.39Z"/><path class="cls-26" d="M359.69,196.14h5.39v9.7H375v-9.7h5.4v24.51H375v-9.84h-9.94v9.84h-5.39Z"/><path class="cls-26" d="M385.21,208.39a13,13,0,1,1,13,12.67A12.67,12.67,0,0,1,385.21,208.39Zm20.4,0a7.44,7.44,0,0,0-7.42-7.7c-4.34,0-7.35,3.43-7.35,7.7a7.44,7.44,0,0,0,7.42,7.7C402.6,216.09,405.61,212.66,405.61,208.39Z"/><path class="cls-26" d="M415,208.39a13,13,0,1,1,13,12.67A12.67,12.67,0,0,1,415,208.39Zm20.4,0a7.44,7.44,0,0,0-7.42-7.7c-4.34,0-7.35,3.43-7.35,7.7a7.44,7.44,0,0,0,7.42,7.7C432.35,216.09,435.36,212.66,435.36,208.39Z"/><path class="cls-26" d="M445.79,196.14h5.39v19.6H463.4v4.91H445.79Z"/><path class="cls-26" d="M478,196.14h18.48v4.8H483.31v5h11.55v4.79H483.31v5.15h13.3v4.8H478Z"/><path class="cls-26" d="M501.41,196.14h5.81l6.44,10.36,6.44-10.36h5.81v24.51h-5.36v-16l-6.89,10.46h-.14l-6.83-10.36v15.9h-5.28Z"/><path class="cls-26" d="M531.79,196.14h10c5.84,0,9.38,3.47,9.38,8.54,0,5.67-4.41,8.61-9.91,8.61h-4.09v7.36h-5.39Zm9.66,12.36c2.69,0,4.27-1.61,4.27-3.78,0-2.42-1.68-3.71-4.38-3.71h-4.16v7.49Z"/><path class="cls-26" d="M555.17,196.14h5.39v19.6h12.21v4.91h-17.6Z"/><path class="cls-26" d="M574.35,208.39a13,13,0,1,1,13,12.67A12.67,12.67,0,0,1,574.35,208.39Zm20.4,0a7.44,7.44,0,0,0-7.42-7.7c-4.34,0-7.35,3.43-7.35,7.7a7.44,7.44,0,0,0,7.42,7.7C591.74,216.09,594.75,212.66,594.75,208.39Z"/><path class="cls-26" d="M610,211l-9.42-14.84h6.3l5.85,9.84,5.95-9.84h6.12l-9.41,14.74v9.77H610Z"/><path class="cls-26" d="M628.14,196.14h18.48v4.8H633.5v5h11.55v4.79H633.5v5.15h13.3v4.8H628.14Z"/><path class="cls-26" d="M651.59,196.14h18.48v4.8H657v5H668.5v4.79H657v5.15h13.3v4.8H651.59Z"/><path class="cls-26" d="M673.36,217.07l3.18-3.81a11.26,11.26,0,0,0,7.32,3c2.21,0,3.54-.87,3.54-2.38,0-1.36-.84-2.06-4.94-3.11-4.93-1.26-8.12-2.63-8.12-7.56,0-4.45,3.57-7.39,8.58-7.39a14.17,14.17,0,0,1,9.1,3.12l-2.8,4.06a11.48,11.48,0,0,0-6.37-2.42c-2.07,0-3.15.95-3.15,2.21,0,1.61,1,2.13,5.28,3.22,5,1.29,7.77,3.08,7.77,7.42,0,4.87-3.71,7.59-9,7.59A15.58,15.58,0,0,1,673.36,217.07Z"/></svg>