<svg id="Layer_1" data-name="Layer 1" xmlns="http://www.w3.org/2000/svg" viewBox="0 0 794.95 597.12"><defs><style>.cls-1,.cls-7{fill:#f7f7f7;}.cls-16,.cls-2,.cls-3,.cls-6{fill:#fff;}.cls-2{stroke:#ccc;}.cls-10,.cls-11,.cls-12,.cls-13,.cls-14,.cls-15,.cls-16,.cls-18,.cls-19,.cls-2,.cls-22,.cls-23,.cls-7,.cls-8,.cls-9{stroke-miterlimit:10;}.cls-17,.cls-4,.cls-5,.cls-8{fill:none;}.cls-10,.cls-11,.cls-12,.cls-13,.cls-14,.cls-15,.cls-16,.cls-17,.cls-20,.cls-21,.cls-22,.cls-23,.cls-4,.cls-5,.cls-6,.cls-7,.cls-8{stroke:#333;}.cls-17,.cls-20,.cls-21,.cls-4,.cls-5,.cls-6{stroke-linecap:round;stroke-linejoin:round;}.cls-5{stroke-dasharray:2.01 5.03;}.cls-9{fill:#111e8e;}.cls-18,.cls-19,.cls-9{stroke:#000;}.cls-10{fill:#f1f5ff;}.cls-11{fill:#6bacf9;}.cls-12{fill:#fff8cd;}.cls-13{fill:#a4a3a3;}.cls-14{fill:#a3a3a3;}.cls-15,.cls-19{fill:#0b5cce;}.cls-17{stroke-dasharray:2 5;}.cls-18{fill:#2457bc;}.cls-20{fill:#e3e3e3;}.cls-21{fill:#66bac4;}.cls-23{fill:#999;}.cls-24{fill:#333;}</style></defs><title>ABOUT US</title><circle class="cls-1" cx="392" cy="310.03" r="251"/><circle class="cls-2" cx="392" cy="310.03" r="229.97"/><path class="cls-3" d="M133.06,344.85a48.58,48.58,0,1,1,75.71-1.41"/><path class="cls-4" d="M133.06,344.85l-.64-.78"/><path class="cls-5" d="M129.49,340a48.58,48.58,0,1,1,81.33.59"/><path class="cls-4" d="M209.38,342.64l-.61.8"/><path class="cls-6" d="M129,351a55.66,55.66,0,1,1,84.5-2.06"/><path class="cls-6" d="M139.42,340.79a41.1,41.1,0,1,1,62.65-.93"/><rect class="cls-7" x="289.73" y="269.66" width="385.88" height="144.75"/><polyline class="cls-7" points="123.08 404.97 123.08 453.74 220.5 453.74 220.5 404.97"/><path class="cls-8" d="M222.53,382.14c0-27.13,3.87-24.77-14.23-30.27"/><path class="cls-9" d="M188.15,339.51l9.6.16a18,18,0,0,1,18,18v32.71H127.67V357.7a18,18,0,0,1,18-18h10.68"/><polyline class="cls-10" points="188.15 350.06 192.77 339.67 150.22 339.67 171.72 386.87 188.15 350.06"/><polyline class="cls-11" points="161.5 342.82 166.22 353.44 164.05 370.04 171.72 386.87 179.2 369.96 176.44 353.44 179.98 345.57"/><line class="cls-8" x1="166.22" y1="353.44" x2="176.44" y2="353.44"/><path class="cls-12" d="M193.75,304.66v25.08a10.58,10.58,0,0,1-5.14,9.08l-15.11,8.66a4.28,4.28,0,0,1-4.32-.05l-14.34-8.61a10.58,10.58,0,0,1-5.14-9.08l-.4-13.67-1.57-9.44,5.51-11.41L191,296Z"/><path class="cls-13" d="M178.69,343.64l1.51-3.88a2.82,2.82,0,0,1,3.47-1.66l23.54,7.42a2.81,2.81,0,0,1,1.85,3.51l-1.47,4.76a2.82,2.82,0,0,1-3.62,1.83l-23.6-8.29A2.82,2.82,0,0,1,178.69,343.64Z"/><path class="cls-14" d="M204,390.41c1.46-5.19,7-9,13.58-9s12.11,3.85,13.58,9"/><path class="cls-13" d="M172.28,283.82c20,.38,29.86,20.35,21.8,33.73a.3.3,0,0,1-.55-.15c.13-7.79,1.56-13.38-4.38-20.18a.66.66,0,0,0-1.12.19c-3.77,9.14-12.33,8-15.75,8h-1.34c-3.38,0-11.75,1.07-15.6-7.68a.92.92,0,0,0-1.55-.23c-5.62,6.65-4.23,12.19-4.1,19.86a.3.3,0,0,1-.55.15c-8.06-13.38,1.78-33.35,21.8-33.73Z"/><circle class="cls-6" cx="129.63" cy="275.56" r="3.54"/><circle class="cls-15" cx="222.86" cy="329.44" r="3.54"/><circle class="cls-6" cx="229.55" cy="446.66" r="3.54"/><circle class="cls-15" cx="258.65" cy="358.55" r="3.54"/><path class="cls-4" d="M226.4,329.44H239c6.29,0,7.27-7.27,7.27-7.27v-23c0-4.72,4.53-7.87,7.67-7.87"/><circle class="cls-6" cx="258.26" cy="292.08" r="4.33"/><circle class="cls-6" cx="258.26" cy="292.08" r="1.97"/><circle class="cls-11" cx="258.65" cy="333.38" r="6.29"/><circle class="cls-16" cx="258.65" cy="333.38" r="2.75"/><path class="cls-4" d="M262.87,285.43a7.87,7.87,0,0,1,.18,13.17"/><path class="cls-4" d="M265,283a10.74,10.74,0,0,1,.25,18"/><path class="cls-4" d="M267.45,280.67a13.56,13.56,0,0,1,.31,22.69"/><path class="cls-4" d="M269.55,278.31a16.38,16.38,0,0,1,.38,27.41"/><line class="cls-17" x1="258.65" y1="297.98" x2="258.65" y2="324.33"/><line class="cls-17" x1="258.65" y1="342.03" x2="258.65" y2="354.62"/><line class="cls-17" x1="258.65" y1="364.06" x2="258.65" y2="372.71"/><polygon class="cls-15" points="251.57 374.29 265.34 374.29 258.65 385.3 251.57 374.29"/><polygon class="cls-9" points="541.87 396.36 541.87 407.92 532.62 402.31 541.87 396.36"/><path class="cls-4" d="M233.09,446.66H255.9s10.62-.78,10.62-10.62V399.85"/><polyline class="cls-4" points="259.83 399.86 266.52 391.2 273.21 399.86"/><rect class="cls-11" x="317.66" y="324.33" width="16.13" height="40.52"/><rect class="cls-9" x="339.68" y="312.14" width="16.13" height="52.71"/><rect class="cls-18" x="364.07" y="296.8" width="16.13" height="68.05"/><rect class="cls-15" x="388.07" y="303.48" width="16.13" height="61.36"/><rect class="cls-4" x="446.68" y="281.46" width="5.11" height="95.19"/><rect class="cls-9" x="517.68" y="224.22" width="7.08" height="132.56" transform="translate(230.71 811.72) rotate(-90)"/><rect class="cls-18" x="505.48" y="243.89" width="7.08" height="108.17" transform="translate(211.05 807) rotate(-90)"/><rect class="cls-9" x="510.2" y="253.72" width="7.08" height="117.61" transform="translate(201.21 826.27) rotate(-90)"/><rect class="cls-18" x="507.45" y="263.95" width="7.08" height="112.11" transform="translate(190.98 830.99) rotate(-90)"/><rect class="cls-9" x="487.78" y="296.99" width="7.08" height="72.77" transform="translate(157.94 824.7) rotate(-90)"/><rect class="cls-18" x="495.65" y="296.6" width="7.08" height="88.5" transform="translate(158.34 840.04) rotate(-90)"/><rect class="cls-9" x="500.17" y="306.24" width="7.08" height="97.55" transform="translate(148.7 858.72) rotate(-90)"/><rect class="cls-18" x="482.47" y="331.41" width="7.08" height="62.15" transform="translate(123.52 848.5) rotate(-90)"/><path class="cls-4" d="M322,298.76s25.18,6.3,37.77-14.16"/><polyline class="cls-4" points="353.85 284.6 361.32 282.24 361.32 290.5"/><line class="cls-4" x1="421.11" y1="320.79" x2="426.61" y2="320.79"/><polyline class="cls-4" points="425.04 316.07 430.94 320.79 425.04 325.12"/><line class="cls-4" x1="560.75" y1="372.32" x2="566.25" y2="372.32"/><polyline class="cls-4" points="564.68 367.6 570.58 372.32 564.68 376.65"/><circle class="cls-19" cx="654.37" cy="309.38" r="4.33"/><circle class="cls-4" cx="644.93" cy="288.93" r="8.26"/><circle class="cls-11" cx="621.72" cy="300.34" r="12.98"/><circle class="cls-4" cx="585.53" cy="308.2" r="3.15"/><path class="cls-4" d="M585.53,311.35c.79,5.51,4.72,9,13,8.65"/><circle class="cls-4" cx="604.8" cy="319.61" r="2.36"/><circle class="cls-4" cx="604.8" cy="319.61" r="6.29"/><rect class="cls-20" x="583.17" y="332.59" width="47.6" height="11.8"/><line class="cls-4" x1="583.17" y1="354.23" x2="658.69" y2="354.23"/><line class="cls-4" x1="583.17" y1="357.77" x2="658.69" y2="357.77"/><line class="cls-4" x1="583.17" y1="361.31" x2="658.69" y2="361.31"/><line class="cls-4" x1="583.17" y1="369.57" x2="658.69" y2="369.57"/><line class="cls-4" x1="583.17" y1="373.11" x2="658.69" y2="373.11"/><line class="cls-4" x1="583.17" y1="376.65" x2="658.69" y2="376.65"/><line class="cls-4" x1="583.17" y1="382.55" x2="658.69" y2="382.55"/><line class="cls-4" x1="583.17" y1="386.09" x2="658.69" y2="386.09"/><line class="cls-4" x1="583.17" y1="389.63" x2="658.69" y2="389.63"/><line class="cls-21" x1="541.87" y1="401.62" x2="581.6" y2="401.62"/><polygon class="cls-15" points="666.76 448.83 666.76 437.27 676 442.88 666.76 448.83"/><line class="cls-21" x1="666.56" y1="443.12" x2="628.01" y2="443.12"/><circle class="cls-22" cx="583.96" cy="401.82" r="0.79"/><circle class="cls-22" cx="587.5" cy="401.82" r="0.79"/><circle class="cls-22" cx="605.2" cy="401.82" r="0.79"/><circle class="cls-22" cx="608.74" cy="401.82" r="0.79"/><circle class="cls-22" cx="590.64" cy="401.82" r="0.79"/><circle class="cls-22" cx="622.9" cy="401.82" r="0.79"/><circle class="cls-22" cx="617.39" cy="443.12" r="0.79"/><circle class="cls-22" cx="626.44" cy="401.82" r="0.79"/><circle class="cls-22" cx="629.58" cy="401.82" r="0.79"/><circle class="cls-22" cx="633.12" cy="401.82" r="0.79"/><circle class="cls-22" cx="636.66" cy="401.82" r="0.79"/><circle class="cls-22" cx="639.81" cy="401.82" r="0.79"/><circle class="cls-22" cx="643.35" cy="401.82" r="0.79"/><circle class="cls-22" cx="583.17" cy="443.12" r="0.79"/><circle class="cls-22" cx="586.71" cy="443.12" r="0.79"/><circle class="cls-22" cx="589.86" cy="443.12" r="0.79"/><circle class="cls-22" cx="593.4" cy="443.12" r="0.79"/><circle class="cls-22" cx="596.94" cy="443.12" r="0.79"/><circle class="cls-22" cx="600.08" cy="443.12" r="0.79"/><circle class="cls-22" cx="603.62" cy="443.12" r="0.79"/><circle class="cls-22" cx="552.09" cy="443.12" r="0.79"/><circle class="cls-22" cx="555.24" cy="443.12" r="0.79"/><circle class="cls-22" cx="558.78" cy="443.12" r="0.79"/><circle class="cls-22" cx="562.32" cy="443.12" r="0.79"/><circle class="cls-22" cx="565.47" cy="443.12" r="0.79"/><circle class="cls-22" cx="569.01" cy="443.12" r="0.79"/><circle class="cls-22" cx="646.89" cy="401.82" r="0.79"/><circle class="cls-22" cx="650.04" cy="401.82" r="0.79"/><circle class="cls-22" cx="653.58" cy="401.82" r="0.79"/><circle class="cls-22" cx="656.73" cy="401.82" r="0.79"/><circle class="cls-15" cx="598.51" cy="401.43" r="4.33"/><circle class="cls-15" cx="616.21" cy="401.43" r="4.33"/><circle class="cls-9" cx="609.92" cy="443.12" r="4.33"/><circle class="cls-4" cx="575.7" cy="443.12" r="4.33"/><circle class="cls-11" cx="545.01" cy="443.12" r="3.54"/><circle class="cls-9" cx="623.68" cy="443.12" r="4.33"/><line class="cls-4" x1="533.21" y1="431.32" x2="537.15" y2="431.32"/><line class="cls-4" x1="543.83" y1="431.32" x2="547.77" y2="431.32"/><line class="cls-4" x1="554.45" y1="431.32" x2="558.39" y2="431.32"/><line class="cls-4" x1="565.07" y1="431.32" x2="569.01" y2="431.32"/><line class="cls-4" x1="575.7" y1="431.32" x2="579.63" y2="431.32"/><line class="cls-4" x1="586.32" y1="431.32" x2="590.25" y2="431.32"/><line class="cls-4" x1="596.94" y1="431.32" x2="600.87" y2="431.32"/><line class="cls-4" x1="607.56" y1="431.32" x2="611.49" y2="431.32"/><line class="cls-4" x1="618.18" y1="431.32" x2="622.11" y2="431.32"/><line class="cls-4" x1="628.8" y1="431.32" x2="632.73" y2="431.32"/><line class="cls-4" x1="639.42" y1="431.32" x2="643.35" y2="431.32"/><path class="cls-11" d="M336.2,459.64c18.49.35,35-13.07,35-13.07l0-12.2c0-12.19-12.63-12.94-12.63-12.94l-22.42.06-22.42.06s-12.58.82-12.55,13l0,12.19S317.71,460.09,336.2,459.64Z"/><polyline class="cls-12" points="349.13 409.3 349.13 421.49 322.77 421.49 322.77 409.3"/><path class="cls-19" d="M414.08,459.64c18.49.35,35-13.07,35-13.07l0-12.2c0-12.19-12.62-12.94-12.62-12.94l-22.43.06-22.42.06s-12.58.82-12.55,13l0,12.19S395.59,460.09,414.08,459.64Z"/><polyline class="cls-12" points="427.01 409.3 427.01 421.49 400.65 421.49 400.65 409.3"/><path class="cls-23" d="M414.81,375.07c20.45,0,24.38,21.11,13,37.11-4.23,4.77-10.34,6.67-12.33,7.19a5.19,5.19,0,0,1-1.24.15h0a5.19,5.19,0,0,1-1.24-.15c-2-.52-8.1-2.42-12.33-7.19-11.4-16-7.47-37.11,13-37.11Z"/><path class="cls-23" d="M335.74,375.27c20.46,0,24.39,21.11,13,37.11-4.22,4.77-10.33,6.67-12.32,7.18a4.8,4.8,0,0,1-1.24.16h0a4.69,4.69,0,0,1-1.24-.16c-2-.51-8.1-2.41-12.33-7.18-11.41-16-7.47-37.11,13-37.11Z"/><path class="cls-9" d="M492,459.64c18.49.35,35-13.07,35-13.07l0-12.2c0-12.19-12.62-12.94-12.62-12.94l-22.42.06-22.42.06s-12.59.82-12.55,13l0,12.19S473.48,460.09,492,459.64Z"/><polyline class="cls-12" points="504.89 409.3 504.89 421.49 478.54 421.49 478.54 409.3"/><path class="cls-23" d="M492.69,375.07c20.45,0,24.39,21.11,13,37.11-4.23,4.77-10.34,6.67-12.33,7.19a5.13,5.13,0,0,1-1.24.15h0a5.26,5.26,0,0,1-1.24-.15c-2-.52-8.1-2.42-12.32-7.19-11.41-16-7.48-37.11,13-37.11Z"/><rect class="cls-7" x="108" y="390.41" width="127.45" height="14.55"/><line class="cls-4" x1="111.15" y1="401.82" x2="119.8" y2="393.17"/><line class="cls-4" x1="118.62" y1="401.82" x2="127.27" y2="393.17"/><line class="cls-8" x1="126.09" y1="401.82" x2="134.75" y2="393.17"/><line class="cls-8" x1="133.57" y1="401.82" x2="142.22" y2="393.17"/><line class="cls-8" x1="141.04" y1="401.82" x2="149.7" y2="393.17"/><line class="cls-8" x1="148.52" y1="401.82" x2="157.17" y2="393.17"/><line class="cls-8" x1="155.99" y1="401.82" x2="164.64" y2="393.17"/><line class="cls-8" x1="163.46" y1="401.82" x2="172.12" y2="393.17"/><line class="cls-8" x1="170.94" y1="401.82" x2="179.59" y2="393.17"/><line class="cls-8" x1="178.41" y1="401.82" x2="187.06" y2="393.17"/><line class="cls-8" x1="185.88" y1="401.82" x2="194.54" y2="393.17"/><line class="cls-8" x1="193.36" y1="401.82" x2="202.01" y2="393.17"/><line class="cls-8" x1="200.83" y1="401.82" x2="209.48" y2="393.17"/><line class="cls-8" x1="208.3" y1="401.82" x2="216.96" y2="393.17"/><line class="cls-8" x1="215.78" y1="401.82" x2="224.43" y2="393.17"/><line class="cls-8" x1="223.25" y1="401.82" x2="231.91" y2="393.17"/><path class="cls-24" d="M20.74,165.65h5.39v9.7h9.94v-9.7h5.39v24.51H36.07v-9.84H26.13v9.84H20.74Z"/><path class="cls-24" d="M47,179.65v-14h5.39v13.86c0,4,2,6.06,5.28,6.06s5.29-2,5.29-5.88v-14h5.39v13.83c0,7.42-4.17,11.06-10.75,11.06S47,186.87,47,179.65Z"/><path class="cls-24" d="M73.8,165.65h5l11.48,15.09V165.65h5.32v24.51H91L79.12,174.58v15.58H73.8Z"/><path class="cls-24" d="M101.45,165.65H111c7.7,0,13,5.29,13,12.25s-5.32,12.26-13,12.26h-9.56ZM111,185.29a7.39,7.39,0,0,0,0-14.77h-4.17v14.77Z"/><path class="cls-24" d="M128.82,165.65H140c3.12,0,5.53.88,7.14,2.49a7.72,7.72,0,0,1,2.1,5.67A7.6,7.6,0,0,1,144,181.4l6,8.76h-6.3l-5.32-7.85h-4.17v7.85h-5.39Zm10.85,11.9c2.63,0,4.13-1.4,4.13-3.53,0-2.31-1.61-3.5-4.23-3.5h-5.36v7Z"/><path class="cls-24" d="M154.12,165.65h18.49v4.8H159.48v5H171v4.79H159.48v5.15h13.3v4.8H154.12Z"/><path class="cls-24" d="M177.57,165.65h9.56c7.7,0,13,5.29,13,12.25s-5.32,12.26-13,12.26h-9.56Zm9.56,19.64a7.39,7.39,0,1,0,0-14.77H183v14.77Z"/><path class="cls-24" d="M202.91,186.58l3.19-3.81a11.25,11.25,0,0,0,7.32,3c2.2,0,3.53-.88,3.53-2.39s-.84-2.06-4.93-3.11c-4.94-1.26-8.13-2.63-8.13-7.56,0-4.45,3.57-7.39,8.58-7.39a14.15,14.15,0,0,1,9.1,3.12l-2.8,4.06a11.45,11.45,0,0,0-6.37-2.42c-2.07,0-3.15.95-3.15,2.21,0,1.61,1.05,2.13,5.29,3.22,5,1.29,7.77,3.08,7.77,7.42,0,4.87-3.71,7.59-9,7.59A15.58,15.58,0,0,1,202.91,186.58Z"/><path class="cls-24" d="M236.41,177.9a13,13,0,1,1,13,12.68A12.67,12.67,0,0,1,236.41,177.9Zm20.41,0a7.44,7.44,0,0,0-7.42-7.7c-4.35,0-7.36,3.43-7.36,7.7a7.45,7.45,0,0,0,7.43,7.7C253.81,185.6,256.82,182.17,256.82,177.9Z"/><path class="cls-24" d="M267.24,165.65H285.9v4.9H272.63v5.22h11.7v4.9h-11.7v9.49h-5.39Z"/><path class="cls-24" d="M299,186.58l3.19-3.81a11.22,11.22,0,0,0,7.31,3c2.21,0,3.54-.88,3.54-2.39s-.84-2.06-4.94-3.11c-4.93-1.26-8.12-2.63-8.12-7.56,0-4.45,3.57-7.39,8.58-7.39a14.17,14.17,0,0,1,9.1,3.12l-2.8,4.06a11.48,11.48,0,0,0-6.37-2.42c-2.07,0-3.15.95-3.15,2.21,0,1.61,1.05,2.13,5.28,3.22,5,1.29,7.78,3.08,7.78,7.42,0,4.87-3.72,7.59-9,7.59A15.58,15.58,0,0,1,299,186.58Z"/><path class="cls-24" d="M323.1,165.65h18.48v4.8H328.46v5H340v4.79H328.46v5.15h13.3v4.8H323.1Z"/><path class="cls-24" d="M346.55,165.65h5.81L358.8,176l6.45-10.36h5.81v24.51H365.7v-16l-6.9,10.46h-.14l-6.82-10.36v15.9h-5.29Z"/><path class="cls-24" d="M377.18,165.65h5.39v24.51h-5.39Z"/><path class="cls-24" d="M388.69,165.65h5l11.48,15.09V165.65h5.33v24.51h-4.59L394,174.58v15.58h-5.32Z"/><path class="cls-24" d="M424.74,165.48h5l10.5,24.68h-5.63l-2.24-5.5H422l-2.24,5.5h-5.5Zm5.67,14.42-3.25-8-3.26,8Z"/><path class="cls-24" d="M444,165.65h11.2c3.12,0,5.53.88,7.14,2.49a7.72,7.72,0,0,1,2.11,5.67,7.6,7.6,0,0,1-5.26,7.59l6,8.76h-6.3l-5.32-7.85h-4.17v7.85H444Zm10.85,11.9c2.63,0,4.13-1.4,4.13-3.53,0-2.31-1.61-3.5-4.23-3.5h-5.36v7Z"/><path class="cls-24" d="M467.62,186.58l3.18-3.81a11.27,11.27,0,0,0,7.32,3c2.2,0,3.53-.88,3.53-2.39s-.84-2.06-4.93-3.11c-4.94-1.26-8.12-2.63-8.12-7.56,0-4.45,3.57-7.39,8.57-7.39a14.15,14.15,0,0,1,9.1,3.12l-2.8,4.06a11.45,11.45,0,0,0-6.37-2.42c-2.06,0-3.15.95-3.15,2.21,0,1.61,1.05,2.13,5.29,3.22,5,1.29,7.77,3.08,7.77,7.42,0,4.87-3.71,7.59-9,7.59A15.55,15.55,0,0,1,467.62,186.58Z"/><path class="cls-24" d="M515.85,187.78a11.07,11.07,0,0,1-7.18,2.72c-4.69,0-8.22-2.72-8.22-7.14,0-3.11,1.68-5.32,4.76-6.72a8.23,8.23,0,0,1-1.72-5c0-3.36,2.7-6.44,7.42-6.44,4.17,0,6.9,2.73,6.9,6.23,0,3.29-2.1,5.22-5.15,6.41l3.26,3.25c.8-1.26,1.61-2.69,2.38-4.2l4,2.17a43,43,0,0,1-3.22,5.18l3.61,3.61-4,2.77Zm-3-3.09-4.69-4.76a3.68,3.68,0,0,0-2.28,3.29c0,1.72,1.44,2.87,3.43,2.87A5.78,5.78,0,0,0,512.84,184.69Zm.28-13a2.17,2.17,0,0,0-2.31-2.28,2.33,2.33,0,0,0-2.38,2.56,4.37,4.37,0,0,0,1.43,3C512,174.23,513.12,173.32,513.12,171.71Z"/><path class="cls-24" d="M542.76,170.62h-7.45v-5h20.3v5h-7.46v19.54h-5.39Z"/><path class="cls-24" d="M559.74,165.65h5.39v9.7h9.94v-9.7h5.39v24.51h-5.39v-9.84h-9.94v9.84h-5.39Z"/><path class="cls-24" d="M585.25,177.9a13,13,0,1,1,13,12.68A12.68,12.68,0,0,1,585.25,177.9Zm20.41,0a7.44,7.44,0,0,0-7.42-7.7c-4.34,0-7.35,3.43-7.35,7.7a7.44,7.44,0,0,0,7.42,7.7C602.65,185.6,605.66,182.17,605.66,177.9Z"/><path class="cls-24" d="M615.7,179.65v-14h5.39v13.86c0,4,2,6.06,5.29,6.06s5.28-2,5.28-5.88v-14h5.39v13.83c0,7.42-4.16,11.06-10.74,11.06S615.7,186.87,615.7,179.65Z"/><path class="cls-24" d="M640.87,186.58l3.18-3.81a11.27,11.27,0,0,0,7.32,3c2.2,0,3.53-.88,3.53-2.39s-.84-2.06-4.93-3.11c-4.94-1.26-8.12-2.63-8.12-7.56,0-4.45,3.57-7.39,8.57-7.39a14.15,14.15,0,0,1,9.1,3.12l-2.8,4.06a11.45,11.45,0,0,0-6.37-2.42c-2.06,0-3.15.95-3.15,2.21,0,1.61,1,2.13,5.29,3.22,5,1.29,7.77,3.08,7.77,7.42,0,4.87-3.71,7.59-9,7.59A15.55,15.55,0,0,1,640.87,186.58Z"/><path class="cls-24" d="M672.82,165.48h5l10.5,24.68h-5.63l-2.24-5.5H670.06l-2.24,5.5h-5.5Zm5.67,14.42-3.25-8-3.26,8Z"/><path class="cls-24" d="M692.07,165.65h5l11.48,15.09V165.65h5.32v24.51h-4.58l-11.87-15.58v15.58h-5.32Z"/><path class="cls-24" d="M719.72,165.65h9.56c7.7,0,13,5.29,13,12.25s-5.32,12.26-13,12.26h-9.56Zm9.56,19.64a7.39,7.39,0,0,0,0-14.77h-4.17v14.77Z"/><path class="cls-24" d="M745.06,186.58l3.19-3.81a11.22,11.22,0,0,0,7.31,3c2.21,0,3.54-.88,3.54-2.39s-.84-2.06-4.94-3.11c-4.93-1.26-8.12-2.63-8.12-7.56,0-4.45,3.57-7.39,8.58-7.39a14.17,14.17,0,0,1,9.1,3.12l-2.8,4.06a11.48,11.48,0,0,0-6.37-2.42c-2.07,0-3.15.95-3.15,2.21,0,1.61,1.05,2.13,5.28,3.22,5,1.29,7.77,3.08,7.77,7.42,0,4.87-3.71,7.59-9,7.59A15.58,15.58,0,0,1,745.06,186.58Z"/><path class="cls-24" d="M96.83,219.86a13,13,0,1,1,13,12.67A12.68,12.68,0,0,1,96.83,219.86Zm20.41,0a7.44,7.44,0,0,0-7.42-7.7c-4.34,0-7.35,3.43-7.35,7.7a7.44,7.44,0,0,0,7.42,7.7C114.23,227.56,117.24,224.13,117.24,219.86Z"/><path class="cls-24" d="M127.67,207.61h18.65v4.9H133.06v5.22h11.69v4.9H133.06v9.48h-5.39Z"/><path class="cls-24" d="M161.12,207.61h10c5.84,0,9.38,3.47,9.38,8.54,0,5.67-4.41,8.61-9.91,8.61h-4.09v7.35h-5.4ZM170.79,220c2.69,0,4.27-1.61,4.27-3.78,0-2.42-1.68-3.71-4.38-3.71h-4.16V220Z"/><path class="cls-24" d="M184.12,221.61v-14h5.39v13.86c0,4,2,6.06,5.29,6.06s5.28-2,5.28-5.88v-14h5.39v13.83c0,7.42-4.16,11.06-10.74,11.06S184.12,228.82,184.12,221.61Z"/><path class="cls-24" d="M211,207.61h11.38c2.8,0,5,.77,6.41,2.17a6,6,0,0,1-1.54,9.52c2.83,1.09,4.58,2.73,4.58,6.09,0,4.48-3.64,6.72-9.17,6.72H211Zm10.23,9.91c2.38,0,3.88-.77,3.88-2.66,0-1.61-1.26-2.52-3.53-2.52h-5.33v5.18Zm1.43,9.87c2.38,0,3.82-.84,3.82-2.73,0-1.65-1.23-2.66-4-2.66h-6.24v5.39Z"/><path class="cls-24" d="M236.23,207.61h5.39v19.6h12.22v4.9H236.23Z"/><path class="cls-24" d="M258.14,207.61h5.39v24.5h-5.39Z"/><path class="cls-24" d="M268.57,219.86a12.93,12.93,0,0,1,22.27-8.68l-3.22,3.71c-1.9-1.71-3.5-2.73-6.31-2.73-4.13,0-7.1,3.43-7.1,7.7s2.9,7.7,7.1,7.7c2.81,0,4.52-1.12,6.44-2.87l3.44,3.68c-2.52,2.69-5.32,4.16-10.05,4.16A12.38,12.38,0,0,1,268.57,219.86Z"/><path class="cls-24" d="M304.31,228.54l3.18-3.81a11.26,11.26,0,0,0,7.32,3c2.2,0,3.53-.87,3.53-2.38,0-1.36-.84-2.06-4.93-3.11-4.94-1.26-8.12-2.63-8.12-7.56,0-4.45,3.57-7.39,8.57-7.39a14.15,14.15,0,0,1,9.1,3.12l-2.8,4.06a11.45,11.45,0,0,0-6.37-2.42c-2.06,0-3.15.95-3.15,2.21,0,1.61,1.05,2.13,5.29,3.22,5,1.29,7.77,3.08,7.77,7.42,0,4.86-3.71,7.59-9,7.59A15.55,15.55,0,0,1,304.31,228.54Z"/><path class="cls-24" d="M327.3,219.86a12.93,12.93,0,0,1,22.27-8.68l-3.23,3.71c-1.89-1.71-3.5-2.73-6.3-2.73-4.13,0-7.1,3.43-7.1,7.7s2.9,7.7,7.1,7.7c2.8,0,4.52-1.12,6.44-2.87l3.44,3.68c-2.53,2.69-5.33,4.16-10.05,4.16A12.38,12.38,0,0,1,327.3,219.86Z"/><path class="cls-24" d="M354.22,207.61h5.39v9.7h9.94v-9.7h5.39v24.5h-5.39v-9.83h-9.94v9.83h-5.39Z"/><path class="cls-24" d="M379.73,219.86a13,13,0,1,1,13,12.67A12.68,12.68,0,0,1,379.73,219.86Zm20.41,0a7.44,7.44,0,0,0-7.42-7.7c-4.34,0-7.35,3.43-7.35,7.7a7.44,7.44,0,0,0,7.42,7.7C397.13,227.56,400.14,224.13,400.14,219.86Z"/><path class="cls-24" d="M409.48,219.86a13,13,0,1,1,13,12.67A12.68,12.68,0,0,1,409.48,219.86Zm20.41,0a7.44,7.44,0,0,0-7.42-7.7c-4.34,0-7.35,3.43-7.35,7.7a7.44,7.44,0,0,0,7.42,7.7C426.88,227.56,429.89,224.13,429.89,219.86Z"/><path class="cls-24" d="M440.32,207.61h5.39v19.6h12.21v4.9h-17.6Z"/><path class="cls-24" d="M472.48,207.61H491v4.8H477.84v5h11.55v4.79H477.84v5.15h13.3v4.79H472.48Z"/><path class="cls-24" d="M495.93,207.61h5.81L508.18,218l6.44-10.36h5.81v24.5h-5.35v-16l-6.9,10.46H508l-6.82-10.36v15.89h-5.29Z"/><path class="cls-24" d="M526.31,207.61h10c5.85,0,9.38,3.47,9.38,8.54,0,5.67-4.41,8.61-9.9,8.61h-4.1v7.35h-5.39ZM536,220c2.7,0,4.27-1.61,4.27-3.78,0-2.42-1.68-3.71-4.37-3.71H531.7V220Z"/><path class="cls-24" d="M549.69,207.61h5.39v19.6H567.3v4.9H549.69Z"/><path class="cls-24" d="M568.87,219.86a13,13,0,1,1,13,12.67A12.68,12.68,0,0,1,568.87,219.86Zm20.41,0a7.44,7.44,0,0,0-7.42-7.7c-4.34,0-7.35,3.43-7.35,7.7a7.44,7.44,0,0,0,7.42,7.7C586.27,227.56,589.28,224.13,589.28,219.86Z"/><path class="cls-24" d="M604.5,222.45l-9.42-14.84h6.31l5.84,9.84,5.95-9.84h6.13l-9.42,14.74v9.76H604.5Z"/><path class="cls-24" d="M622.67,207.61h18.48v4.8H628v5h11.55v4.79H628v5.15h13.3v4.79H622.67Z"/><path class="cls-24" d="M646.12,207.61H664.6v4.8H651.47v5H663v4.79H651.47v5.15h13.3v4.79H646.12Z"/><path class="cls-24" d="M667.88,228.54l3.19-3.81a11.26,11.26,0,0,0,7.32,3c2.2,0,3.53-.87,3.53-2.38,0-1.36-.84-2.06-4.93-3.11-4.94-1.26-8.12-2.63-8.12-7.56,0-4.45,3.57-7.39,8.57-7.39a14.15,14.15,0,0,1,9.1,3.12l-2.8,4.06a11.45,11.45,0,0,0-6.37-2.42c-2.06,0-3.15.95-3.15,2.21,0,1.61,1,2.13,5.29,3.22,5,1.29,7.77,3.08,7.77,7.42,0,4.86-3.71,7.59-9,7.59A15.6,15.6,0,0,1,667.88,228.54Z"/></svg>