<?xml version="1.0" encoding="utf-8"?>
<!-- Generator: Adobe Illustrator 22.0.1, SVG Export Plug-In . SVG Version: 6.00 Build 0)  -->
<svg version="1.1" id="Layer_1" xmlns="http://www.w3.org/2000/svg" xmlns:xlink="http://www.w3.org/1999/xlink" x="0px" y="0px"
	 viewBox="0 0 500 500" style="enable-background:new 0 0 500 500;" xml:space="preserve">
<style type="text/css">
	.st0{fill:url(#SVGID_1_);}
</style>
<linearGradient id="SVGID_1_" gradientUnits="userSpaceOnUse" x1="77.0833" y1="221.8256" x2="448.9722" y2="221.8256">
	<stop  offset="0" style="stop-color:#0B5CD0"/>
	<stop  offset="0.9969" style="stop-color:#111E8E"/>
</linearGradient>
<path class="st0" d="M449,128.6c-0.9,1.7-1.3,2.9-2,3.9c-0.8,1.1-1.9,2.1-2.9,3.1c-75.4,75.6-150.8,151.2-226.2,226.8
	c-5.7,5.7-7.2,5.7-12.8,0C163.6,321,122.3,279.7,81,238.4c-5.3-5.3-5.3-7.2,0.1-12.5c14-14,28-28,42-42c4.6-4.6,6.7-4.6,11.3,0
	c23.5,23.7,47,47.4,70.5,71.1c4.7,4.8,6.8,4.8,11.6,0c57.7-57.9,115.5-115.8,173.2-173.6c5.6-5.6,6.7-5.6,12.3-0.1
	c14.4,14,28.7,28.1,43,42.2C446.7,124.9,447.7,126.9,449,128.6z"/>
</svg>
