<?xml version="1.0" encoding="utf-8"?>
<!-- Generator: Adobe Illustrator 22.0.1, SVG Export Plug-In . SVG Version: 6.00 Build 0)  -->
<svg version="1.1" id="Layer_1" xmlns="http://www.w3.org/2000/svg" xmlns:xlink="http://www.w3.org/1999/xlink" x="0px" y="0px"
	 viewBox="0 0 484.7 490" style="enable-background:new 0 0 484.7 490;" xml:space="preserve">
<style type="text/css">
	.st0{fill:url(#SVGID_1_);}
	.st1{fill:url(#SVGID_2_);}
	.st2{fill:url(#SVGID_3_);}
	.st3{fill:url(#SVGID_4_);}
	.st4{fill:url(#SVGID_5_);}
	.st5{fill:url(#SVGID_6_);}
	.st6{fill:url(#SVGID_7_);}
	.st7{fill:url(#SVGID_8_);}
	.st8{fill:url(#SVGID_9_);}
</style>
<g>
	<linearGradient id="SVGID_1_" gradientUnits="userSpaceOnUse" x1="-29.5917" y1="168.5801" x2="444.8314" y2="328.9485">
		<stop  offset="0" style="stop-color:#0B5CD0"/>
		<stop  offset="0.9969" style="stop-color:#111E8E"/>
	</linearGradient>
	<path class="st0" d="M318,366c4.2,12.4,8.1,23.7,11.9,35.1c2.1,6.2,1,8.6-5.1,10.7c-72.2,24.6-144.4,49.2-216.6,73.8
		c-5,1.7-6.7-1.1-8-4.9c-6.2-18.3-12.5-36.7-18.7-55c-26-77-52.1-154-78.1-231c-0.3-0.8-0.5-1.6-0.8-2.4c-2.1-6.6-1.1-8.7,5.4-10.9
		c24.8-8.4,49.6-16.8,74.4-25.2c40.1-13.7,80.2-27.4,120.4-40.9c4.8-1.6,6.7-4.1,8-8.7c8.8-32.2,17.8-64.3,26.8-96.5
		c2-7.1,4.2-8.4,11.3-6.4c74.9,21,149.8,42,224.7,63c6.9,1.9,8.3,4.6,6.4,11.4c-28,99.8-56,199.6-84.1,299.4
		c-2.1,7.4-4.7,8.9-12.1,6.8c-20.1-5.6-40.2-11.1-60.3-16.7C322.1,367.1,320.5,366.7,318,366z M138,462.8
		c60.4-20.4,120.1-40.6,180-60.8c-31.8-93.9-63.4-187.1-95.1-280.5c-60.4,20.4-120.1,40.6-180,60.8
		C74.7,276.1,106.3,369.2,138,462.8z M278.6,24.7c-0.5,1.1-0.9,2-1.2,2.9c-10.9,38.9-21.8,77.8-32.6,116.7c-0.5,1.9-0.2,4.3,0.4,6.2
		c11.6,33.8,23.3,67.5,34.9,101.3c1.1,3.3,2.8,5,6.3,6c31.4,8.5,62.7,17.3,94.1,26c5.7,1.6,8,4.2,7.1,7.9c-1,3.7-5,5.1-10.5,3.7
		c-0.3-0.1-0.6-0.2-0.9-0.3c-28.1-7.9-56.2-15.8-84.3-23.7c-1.7-0.5-3.3-0.9-5.7-1.5c1.8,5.3,3.8,9.7,4.6,14.2
		c1.3,7.2,5.4,10.1,12.4,11.9c22.1,5.7,44,12.4,66,18.5c3.8,1.1,6,3.3,5.1,7.2c-0.8,3.6-3.9,4.7-7.4,4.4c-1.3-0.1-2.6-0.6-3.9-0.9
		c-16.7-4.7-33.4-9.4-50.1-14.1c-4.6-1.3-9.2-2.5-14.7-3.9c5.2,15,10,29,15,42.9c0.5,1.3,2.5,2.5,4.1,2.9
		c21.3,6.1,42.7,12.1,64.1,18c1.1,0.3,2.2,0.4,3.5,0.6c27.5-98.1,54.9-195.9,82.4-294C404.1,59.8,341.4,42.3,278.6,24.7z
		 M15.2,191.4C47,285,78.6,378.2,110.3,471.8c5.7-1.9,10.8-3.6,16.2-5.4C94.8,372.7,63.2,279.5,31.5,186
		C25.9,187.8,20.9,189.5,15.2,191.4z M237.7,125c9.7-34.7,19.4-69.2,29.1-104c-6.1-1.7-11.7-3.1-17.5-4.7
		c-8.8,30.9-17.4,61.1-26.1,91.6C235.5,107.7,232.2,119.4,237.7,125z"/>
	<linearGradient id="SVGID_2_" gradientUnits="userSpaceOnUse" x1="-32.2479" y1="176.438" x2="442.1752" y2="336.8064">
		<stop  offset="0" style="stop-color:#0B5CD0"/>
		<stop  offset="0.9969" style="stop-color:#111E8E"/>
	</linearGradient>
	<path class="st1" d="M157.3,183.2c4.9-0.1,6.3,2.9,7.4,6.2c7,20.9,14.1,41.8,21.1,62.6c3.1,9.3,6.3,18.6,9.4,28
		c1.8,5.6,0.6,8-4.9,10c-7.9,2.8-15.8,5.4-23.7,8.1c-7.1,2.4-8.4,1.8-10.9-5.4c-6.4-18.1-12.7-36.2-19-54.3
		c-3.9-11-7.7-22.1-11.6-33.1c-3-8.5-2-10.5,6.3-13.4c7.6-2.6,15.2-5.2,22.8-7.7C155.4,183.8,156.7,183.4,157.3,183.2z M155.5,196.8
		c-5.8,2.1-11.1,4-16.8,6c9.5,27.8,18.9,55.4,28.3,83c5.9-2.1,11.2-4,16.8-6.1C174.3,251.9,164.9,224.5,155.5,196.8z"/>
	<linearGradient id="SVGID_3_" gradientUnits="userSpaceOnUse" x1="-24.6505" y1="153.9625" x2="449.7726" y2="314.3308">
		<stop  offset="0" style="stop-color:#0B5CD0"/>
		<stop  offset="0.9969" style="stop-color:#111E8E"/>
	</linearGradient>
	<path class="st2" d="M212.1,183.2c1.1,1.1,3.6,2.4,4.3,4.5c8.5,24.6,16.8,49.3,25.1,73.9c2.8,8.4,2,10.1-6.2,12.9
		c-7.1,2.4-14.2,4.8-21.3,7.2c-7.7,2.6-8.7,2.1-11.4-5.8c-6.3-18.5-12.5-37-18.8-55.4c-2.1-6.3-4.2-12.7-6.4-19
		c-1.3-3.8-0.3-6.8,3.4-8.2c9.2-3.4,18.6-6.5,27.9-9.6C209.3,183.5,210,183.5,212.1,183.2z M190.4,203.4
		c7.8,22.6,15.2,44.5,22.9,66.7c5.8-2.1,11.2-4,16.8-6.1c-7.7-22.5-15.2-44.5-22.9-66.7C201.4,199.5,196.1,201.4,190.4,203.4z"/>
	<linearGradient id="SVGID_4_" gradientUnits="userSpaceOnUse" x1="-47.9434" y1="222.8705" x2="426.4797" y2="383.2389">
		<stop  offset="0" style="stop-color:#0B5CD0"/>
		<stop  offset="0.9969" style="stop-color:#111E8E"/>
	</linearGradient>
	<path class="st3" d="M128.1,244.4c1.7,1.7,4.3,3.1,5.1,5.2c5.6,15.5,11,31.1,16.2,46.8c1.8,5.3,0.1,8-5.4,9.9
		c-8.7,3-17.4,5.8-26,8.9c-4,1.4-6.5,0-7.8-3.8c-5.6-15.9-11.1-31.8-16.6-47.7c-1.2-3.5-0.7-6.9,3.2-8.3c9.6-3.4,19.2-6.6,28.9-9.9
		c0.5-0.2,1-0.1,1.5-0.2C127.6,245,127.8,244.7,128.1,244.4z M123.5,258.8c-5.9,2.1-11.2,4-16.8,6.1c4.3,12.6,8.4,24.8,12.7,37.3
		c5.9-2.1,11.1-4,16.8-6.1C131.9,283.5,127.8,271.4,123.5,258.8z"/>
	<linearGradient id="SVGID_5_" gradientUnits="userSpaceOnUse" x1="-64.1931" y1="270.9427" x2="410.2299" y2="431.3111">
		<stop  offset="0" style="stop-color:#0B5CD0"/>
		<stop  offset="0.9969" style="stop-color:#111E8E"/>
	</linearGradient>
	<path class="st4" d="M275.6,338c-0.1,3.6-2.5,5.2-5.8,6.3c-21.3,7.2-42.7,14.4-64,21.6c-22.7,7.7-45.5,15.3-68.2,23.1
		c-4.1,1.4-6.9,0.9-8.5-3.1c-1.5-3.5,0.5-7.1,4.7-8.5c16.7-5.7,33.5-11.3,50.2-17c27.3-9.2,54.7-18.5,82-27.7
		C271.4,330.9,275.4,333.1,275.6,338z"/>
	<linearGradient id="SVGID_6_" gradientUnits="userSpaceOnUse" x1="-71.7798" y1="293.3867" x2="402.6432" y2="453.7551">
		<stop  offset="0" style="stop-color:#0B5CD0"/>
		<stop  offset="0.9969" style="stop-color:#111E8E"/>
	</linearGradient>
	<path class="st5" d="M285.2,367.1c-0.1,3.3-3.2,4.6-6.4,5.7c-23.8,8-47.7,16.1-71.5,24.2c-19.9,6.7-39.8,13.3-59.7,20.2
		c-3.9,1.3-6.9,1.3-8.7-2.8c-1.6-3.8,0.3-7.3,4.9-8.8c21.6-7.3,43.3-14.6,64.9-21.9c22.4-7.6,44.8-15.2,67.3-22.7
		C281.2,359.1,285.2,361.5,285.2,367.1z"/>
	<linearGradient id="SVGID_7_" gradientUnits="userSpaceOnUse" x1="21.0878" y1="18.6532" x2="495.5109" y2="179.0216">
		<stop  offset="0" style="stop-color:#0B5CD0"/>
		<stop  offset="0.9969" style="stop-color:#111E8E"/>
	</linearGradient>
	<path class="st6" d="M381.4,86c-1.5,5.6-3.2,11.7-4.9,17.8c-7,25.4-14,50.8-21,76.2c-1.9,7-4.1,8.3-11.3,6.4c-7.4-2-14.8-4-22.2-6
		c-8.4-2.3-9.1-3.5-6.8-11.8c8.3-30.2,16.6-60.4,25-90.6c1.9-7,3.8-8,10.8-6.2c8.1,2.1,16.1,4.2,24.2,6.5
		C379.5,79.4,381.5,81.8,381.4,86z M349.9,84.2c-7.9,28.7-15.6,56.6-23.5,84.8c6,1.6,11.6,3.1,17.5,4.7
		c7.9-28.5,15.6-56.4,23.5-84.7C361.5,87.4,355.9,85.9,349.9,84.2z"/>
	<linearGradient id="SVGID_8_" gradientUnits="userSpaceOnUse" x1="19.3366" y1="23.8339" x2="493.7597" y2="184.2023">
		<stop  offset="0" style="stop-color:#0B5CD0"/>
		<stop  offset="0.9969" style="stop-color:#111E8E"/>
	</linearGradient>
	<path class="st7" d="M395.3,200c-10.3-2.9-20.6-5.5-30.8-8.7c-3.4-1.1-3.2-4.4-2.3-7.7c6.3-23,12.5-46,18.7-69.1
		c0.7-2.7,1.5-5.5,2.3-8.2c1.6-5.6,3.9-6.9,9.6-5.4c7.9,2.1,15.8,4.2,23.7,6.3c7.3,2,8.7,4.4,6.7,11.6c-4.4,16.2-8.9,32.5-13.4,48.7
		c-2.4,8.8-4.9,17.7-7.2,26.6C401.6,198,399.4,199.9,395.3,200z M393.2,113.7c-6.3,22.9-12.4,45.3-18.6,68
		c6.2,1.7,11.7,3.2,17.5,4.7c6.3-22.9,12.4-45.2,18.6-67.9C404.8,116.9,399.3,115.4,393.2,113.7z"/>
	<linearGradient id="SVGID_9_" gradientUnits="userSpaceOnUse" x1="12.4545" y1="44.1934" x2="486.8776" y2="204.5618">
		<stop  offset="0" style="stop-color:#0B5CD0"/>
		<stop  offset="0.9969" style="stop-color:#111E8E"/>
	</linearGradient>
	<path class="st8" d="M301,174.6c-11.6-3.3-22-5.9-32-9.3c-1.7-0.6-3.6-4.9-3-6.9c4.2-16.5,8.8-32.8,13.5-49.1
		c1.1-3.9,4.3-5.4,8.3-4.4c9.4,2.4,18.7,4.9,28,7.5c4.2,1.2,5.5,4.4,4.4,8.2c-4.3,16.1-8.7,32.2-13.5,48.1
		C305.9,171.1,302.7,172.8,301,174.6z M279.5,155.2c6.2,1.7,11.7,3.2,17.5,4.7c3.5-12.9,6.8-25.2,10.2-37.8
		c-6.1-1.6-11.6-3.1-17.5-4.7C286.2,130.1,283,142.3,279.5,155.2z"/>
</g>
</svg>
