<svg id="Layer_1" data-name="Layer 1" xmlns="http://www.w3.org/2000/svg" xmlns:xlink="http://www.w3.org/1999/xlink" viewBox="0 0 1000 294.79"><defs><style>.cls-1{font-size:91.35px;fill:#4d4d4d;font-family:Aileron-SemiBold, Aileron;font-weight:700;}.cls-2{letter-spacing:-0.01em;}.cls-3{fill:url(#linear-gradient);}.cls-4{fill:url(#linear-gradient-2);}.cls-5{fill:url(#linear-gradient-3);}.cls-6{fill:url(#linear-gradient-4);}</style><linearGradient id="linear-gradient" x1="146.41" y1="43.21" x2="256.78" y2="174.53" gradientUnits="userSpaceOnUse"><stop offset="0" stop-color="#0b5cd0"/><stop offset="1" stop-color="#111e8e"/></linearGradient><linearGradient id="linear-gradient-2" x1="148.6" y1="41.36" x2="258.98" y2="172.68" xlink:href="#linear-gradient"/><linearGradient id="linear-gradient-3" x1="94.97" y1="86.44" x2="205.34" y2="217.76" xlink:href="#linear-gradient"/><linearGradient id="linear-gradient-4" x1="88.56" y1="91.83" x2="198.94" y2="223.15" xlink:href="#linear-gradient"/></defs><title>LOGO HEA</title><text class="cls-1" transform="translate(296.65 136)">Hill Education<tspan x="0" y="80.91">Associa</tspan><tspan class="cls-2" x="323.64" y="80.91">t</tspan><tspan x="353.14" y="80.91">es</tspan></text><path class="cls-3" d="M256,77.58a92.72,92.72,0,0,0-17.32-8.81C219,61,195.41,57.44,181.49,57.44c-11.39,0-29.22,2.39-46.1,7.51v3.94a195.07,195.07,0,0,0,.92,20.32c15.45-5.51,34-8.39,45.18-8.39,14,0,39.47,4.5,56,13-1,12.46-4.63,30.21-12.59,48.8A156.32,156.32,0,0,1,190,193.78a116,116,0,0,0,16.69,11.59l3.14,1.73c40-40.9,51.33-94.25,51.33-119.8V81.05Z"/><path class="cls-4" d="M255.14,78.84a90.8,90.8,0,0,0-17-8.66C218.53,62.46,195,59,181.49,59c-9.54,0-26.83,1.87-44.59,7.12v2.82c0,.86,0,1.72,0,2.56,15-3.73,29-5.11,37.19-5.11,13.55,0,37,3.51,56.6,11.23a90.49,90.49,0,0,1,17.05,8.66l4.52,3v5.44c0,23.11-9.32,70.67-43.17,110.28l.46.25c39.52-40.94,50.1-93.3,50.1-117.92V81.86Z"/><path class="cls-5" d="M138,142.63c-8-18.59-11.62-36.34-12.58-48.8a196.7,196.7,0,0,1-1.38-25A91.71,91.71,0,0,0,107,77.58l-5.19,3.47V87.3c0,29.65,15.22,96.7,72.83,138.33l6.85,4.94,6.84-4.94q6.85-4.95,12.92-10.35a129.07,129.07,0,0,1-19.76-13.88C163,186.21,148.07,166.06,138,142.63Z"/><path class="cls-6" d="M183.79,222.45c-59.67-43.11-75.44-112.53-75.44-143.22v-.72l-.51.33-4.52,3V87.3c0,29.38,15.09,95.84,72.21,137.1l6,4.31,5.48-4Z"/></svg>