<svg id="Layer_1" data-name="Layer 1" xmlns="http://www.w3.org/2000/svg" xmlns:xlink="http://www.w3.org/1999/xlink" viewBox="0 0 500 137"><defs><style>.cls-1{fill:#fff;}.cls-2{fill:url(#linear-gradient);}.cls-3{fill:url(#linear-gradient-2);}.cls-4{fill:url(#linear-gradient-3);}.cls-5{fill:url(#linear-gradient-4);}</style><linearGradient id="linear-gradient" x1="54.1" y1="7.87" x2="116.5" y2="82.11" gradientUnits="userSpaceOnUse"><stop offset="0" stop-color="#0b5cd0"/><stop offset="1" stop-color="#111e8e"/></linearGradient><linearGradient id="linear-gradient-2" x1="55.34" y1="6.82" x2="117.74" y2="81.07" xlink:href="#linear-gradient"/><linearGradient id="linear-gradient-3" x1="25.02" y1="32.31" x2="87.42" y2="106.56" xlink:href="#linear-gradient"/><linearGradient id="linear-gradient-4" x1="21.39" y1="35.35" x2="83.8" y2="109.6" xlink:href="#linear-gradient"/></defs><title>HEA LOGO</title><path class="cls-1" d="M173.55,63.83h-5.63V48.64H149.63V63.83H144V28.19h5.68V44.05h18.29V28.19h5.63Z"/><path class="cls-1" d="M187,30.1a3.24,3.24,0,0,1-3.36,3.3,3.28,3.28,0,1,1,0-6.55A3.23,3.23,0,0,1,187,30.1Zm-6.2,33.73V36.4h5.69V63.83Z"/><path class="cls-1" d="M199.26,55.46c0,.93,0,1.76.05,2.58.11,1.55.83,2.07,3.26,1.86v4a29,29,0,0,1-3.72.26c-3,0-5-1.09-5.22-4.6,0-1,0-2.27,0-3.93V25.86h5.68Z"/><path class="cls-1" d="M212.79,55.46c0,.93,0,1.76.05,2.58.11,1.55.83,2.07,3.26,1.86v4a29,29,0,0,1-3.72.26c-3,0-5-1.09-5.22-4.6,0-1,0-2.27,0-3.93V25.86h5.68Z"/><path class="cls-1" d="M257.47,63.83H232.83V28.19H257v4.49H238.51V43.74h17v4.49h-17V59.28h19Z"/><path class="cls-1" d="M287.68,63.83H282V59.49l-2.07,3a12.33,12.33,0,0,1-7.18,2.07c-7.85,0-12.34-5.94-12.34-14,0-10,6.2-14.87,13.27-14.87,2.27,0,5.12.62,6.51,1.7L282,40.12V25.86h5.68ZM282,50.4V49c0-6.66-4-9.14-7.7-9.14-4.49,0-7.9,3.46-7.9,10.28,0,5.94,2.74,10.33,7.64,10.33C278.33,60.42,282,57.73,282,50.4Z"/><path class="cls-1" d="M318.87,63.83h-5.63v-4.7l-1.91,3.41a10.81,10.81,0,0,1-6.92,2c-5.68,0-9-3.2-9.61-7a32,32,0,0,1-.26-4.86V36.4h5.63V51.59c0,.87.06,2.37.21,3.77.41,3,2.38,5,5.89,5,4,0,7-3,7-11V36.4h5.63Z"/><path class="cls-1" d="M349.34,45.9h-5.73c-.83-4.18-3.05-6.09-6.41-6.09-4,0-7.12,3.15-7.12,10,0,7.44,3.1,10.59,6.92,10.59,3.25,0,5.58-2,6.4-5.68h5.79c-1.29,6.56-6.05,9.81-12.5,9.81-7.18,0-12.6-4.54-12.6-14.31,0-9.35,6.09-14.56,13.27-14.56C344.28,35.68,348.67,39.86,349.34,45.9Z"/><path class="cls-1" d="M369.53,59.85l-1.39,2.94a11.75,11.75,0,0,1-6.82,1.76c-4.85,0-8.83-2.79-8.83-7.9,0-6.1,4.86-9.4,15.24-9.4h1.75v-.67a30,30,0,0,0-.1-3c-.15-2.22-1.55-3.77-4.8-3.77s-5,1.86-5.32,5.27h-5.69c.37-6,4.86-9.4,11.11-9.4,7.08,0,9.86,3,10.33,7.64.1,1.14.15,2.58.15,3.88v9.65a48.09,48.09,0,0,0,.52,7h-5.63Zm0-6.3V51c-6.66-.52-11,1-11,5.16,0,2.9,1.91,4.24,4.91,4.24C367,60.42,369.48,58,369.48,53.55Z"/><path class="cls-1" d="M389.16,54.94c0,.93,0,1.55,0,2.28.21,2.68,1.24,3.25,5,2.89V64a28.6,28.6,0,0,1-4.18.31c-4.29,0-6.15-1.6-6.41-5.21-.05-.93-.05-2.12-.05-3.67V40.58h-3.88v-4h3.88V30.05h5.63v6.56h5.37v4h-5.37Z"/><path class="cls-1" d="M405.89,30.1a3.24,3.24,0,0,1-3.36,3.3,3.28,3.28,0,1,1,0-6.55A3.23,3.23,0,0,1,405.89,30.1Zm-6.2,33.73V36.4h5.68V63.83Z"/><path class="cls-1" d="M438.38,50.09c0,8-4.7,14.46-13.9,14.46s-13.89-6.46-13.89-14.46,4.65-14.41,13.89-14.41S438.38,42.08,438.38,50.09Zm-6,0c0-6.2-2.9-10.28-7.86-10.28s-7.9,4.08-7.9,10.28,2.89,10.33,7.9,10.33S432.34,56.29,432.34,50.09Z"/><path class="cls-1" d="M467.76,48.38V63.83h-5.68V49c0-1.29,0-2.48-.1-3.87-.26-3.1-1.91-5.27-5.79-5.27s-7.12,3.1-7.12,11.67v12.3h-5.69V36.4h5.69V41l1.85-3.15a10.31,10.31,0,0,1,6.93-2.12c5.88,0,9.24,3,9.76,7.85C467.71,44.92,467.76,46.16,467.76,48.38Z"/><path class="cls-1" d="M150.15,97.79l-3.87,11.78h-6.05L153,73.93h7.34l12.44,35.64h-6.14L162.8,97.79Zm11.16-4.49-4.7-14.67-5,14.67Z"/><path class="cls-1" d="M195.75,90H190c-.57-2.89-2.28-4.59-5.06-4.59s-4,1.5-4,3.56c0,2.48,2,3.51,6.09,4.6,6,1.55,9.15,3.92,9.15,8.78,0,5.32-4.7,8-10.7,8s-10.58-2.73-11.36-8.93h5.73a5.5,5.5,0,0,0,5.84,4.9c2.63,0,4.75-1.13,4.75-3.51s-1.86-3.66-6.51-4.9c-5-1.3-8.73-3.41-8.73-8.22,0-5.11,4-8.21,10.13-8.21C191.62,81.42,195.13,85,195.75,90Z"/><path class="cls-1" d="M220.34,90h-5.79c-.57-2.89-2.27-4.59-5.06-4.59s-4,1.5-4,3.56c0,2.48,2,3.51,6.1,4.6,6,1.55,9.14,3.92,9.14,8.78,0,5.32-4.7,8-10.69,8s-10.59-2.73-11.37-8.93h5.74a5.49,5.49,0,0,0,5.83,4.9c2.64,0,4.76-1.13,4.76-3.51s-1.86-3.66-6.51-4.9c-5-1.3-8.73-3.41-8.73-8.22,0-5.11,4-8.21,10.12-8.21C216.2,81.42,219.72,85,220.34,90Z"/><path class="cls-1" d="M251.37,95.83c0,8-4.7,14.46-13.89,14.46s-13.89-6.45-13.89-14.46,4.65-14.41,13.89-14.41S251.37,87.83,251.37,95.83Zm-6,0c0-6.2-2.89-10.28-7.85-10.28s-7.9,4.08-7.9,10.28,2.89,10.33,7.9,10.33S245.33,102,245.33,95.83Z"/><path class="cls-1" d="M279.57,91.65h-5.73c-.83-4.19-3-6.1-6.41-6.1-4,0-7.12,3.15-7.12,10,0,7.44,3.1,10.59,6.92,10.59,3.25,0,5.58-2,6.4-5.68h5.79c-1.29,6.56-6.05,9.81-12.5,9.81-7.18,0-12.6-4.54-12.6-14.3,0-9.35,6.09-14.57,13.27-14.57C274.51,81.42,278.9,85.6,279.57,91.65Z"/><path class="cls-1" d="M290.67,75.84a3.24,3.24,0,0,1-3.35,3.31,3.28,3.28,0,1,1,3.35-3.31Zm-6.2,33.73V82.14h5.69v27.43Z"/><path class="cls-1" d="M312.73,105.59l-1.4,3a11.8,11.8,0,0,1-6.82,1.75c-4.85,0-8.83-2.79-8.83-7.9,0-6.09,4.86-9.4,15.24-9.4h1.75v-.67c0-1,0-2-.1-3-.15-2.22-1.55-3.77-4.8-3.77s-5,1.86-5.32,5.27h-5.68c.36-6,4.85-9.4,11.1-9.4,7.08,0,9.87,3,10.33,7.65.1,1.13.16,2.58.16,3.87v9.66a47.85,47.85,0,0,0,.51,7h-5.63Zm-.06-6.3V96.76c-6.66-.52-11,1-11,5.17,0,2.89,1.91,4.23,4.91,4.23C310.14,106.16,312.67,103.73,312.67,99.29Z"/><path class="cls-1" d="M332.35,100.69c0,.93,0,1.55,0,2.27.21,2.69,1.24,3.25,5,2.89v3.93a30.06,30.06,0,0,1-4.18.31c-4.29,0-6.15-1.6-6.41-5.22,0-.93,0-2.12,0-3.67V86.33h-3.87v-4h3.87V75.79h5.63v6.56h5.37v4h-5.37Z"/><path class="cls-1" d="M365.77,97.43H346.09c.46,6.56,3.46,8.73,7.18,8.73a6.23,6.23,0,0,0,6.45-5.47h5.74c-1.19,6.5-6.41,9.6-12.4,9.6-7.33,0-12.86-4.64-12.86-14.36,0-8.67,5.53-14.51,13.43-14.51s12.24,6,12.24,13.74A21.11,21.11,0,0,1,365.77,97.43Zm-19.63-4H360c-.41-5.07-2.63-7.91-6.61-7.91S346.76,88.19,346.14,93.46Z"/><path class="cls-1" d="M390.56,90h-5.79c-.57-2.89-2.27-4.59-5.06-4.59s-4,1.5-4,3.56c0,2.48,2,3.51,6.1,4.6,6,1.55,9.14,3.92,9.14,8.78,0,5.32-4.7,8-10.69,8s-10.59-2.73-11.37-8.93h5.74a5.49,5.49,0,0,0,5.83,4.9c2.64,0,4.76-1.13,4.76-3.51s-1.86-3.66-6.51-4.9c-5-1.3-8.73-3.41-8.73-8.22,0-5.11,4-8.21,10.12-8.21C386.42,81.42,389.94,85,390.56,90Z"/><path class="cls-2" d="M116.05,27.3a52.59,52.59,0,0,0-9.8-5,98.63,98.63,0,0,0-32.32-6.41,98.27,98.27,0,0,0-26.06,4.25v2.22a112.19,112.19,0,0,0,.52,11.5,85.63,85.63,0,0,1,25.54-4.75c7.9,0,22.32,2.55,31.68,7.36A90.82,90.82,0,0,1,98.5,64.08,88.6,88.6,0,0,1,78.75,93a65.52,65.52,0,0,0,9.44,6.55l1.77,1c22.63-23.13,29-53.29,29-67.73V29.26Z"/><path class="cls-3" d="M115.57,28a52.3,52.3,0,0,0-9.63-4.9,97.93,97.93,0,0,0-32-6.34,97.4,97.4,0,0,0-25.21,4v1.59c0,.49,0,1,0,1.46a94.39,94.39,0,0,1,21-2.9,97.93,97.93,0,0,1,32,6.35,51.37,51.37,0,0,1,9.63,4.9L114,33.9V37c0,13.07-5.27,40-24.4,62.36l.25.14c22.35-23.15,28.33-52.75,28.33-66.67V29.72Z"/><path class="cls-4" d="M49.37,64.08a90.88,90.88,0,0,1-7.12-27.59,112.56,112.56,0,0,1-.78-14.11,52.25,52.25,0,0,0-9.65,4.92l-2.94,2V32.8c0,16.76,8.61,54.67,41.18,78.2l3.87,2.8L77.8,111a93,93,0,0,0,7.3-5.85,73.68,73.68,0,0,1-11.17-7.84A87.35,87.35,0,0,1,49.37,64.08Z"/><path class="cls-5" d="M75.23,109.21c-33.73-24.38-42.65-63.63-42.65-81v-.4l-.29.18-2.55,1.71V32.8c0,16.61,8.53,54.18,40.82,77.51l3.37,2.44,3.1-2.24Z"/></svg>