<?xml version="1.0" encoding="utf-8"?>
<!-- Generator: Adobe Illustrator 22.0.1, SVG Export Plug-In . SVG Version: 6.00 Build 0)  -->
<svg version="1.1" id="Layer_1" xmlns="http://www.w3.org/2000/svg" xmlns:xlink="http://www.w3.org/1999/xlink" x="0px" y="0px"
	 viewBox="0 0 1000 294.8" style="enable-background:new 0 0 1000 294.8;" xml:space="preserve">
<style type="text/css">
	.st0{fill:#4D4D4D;}
	.st1{fill:url(#SVGID_1_);}
	.st2{fill:url(#SVGID_2_);}
	.st3{fill:url(#SVGID_3_);}
	.st4{fill:url(#SVGID_4_);}
</style>
<title>LOGO HEA</title>
<g>
	<g>
		<g>
			<g>
				<path class="st0" d="M354.4,135.2h-10.7v-28.9h-34.8v28.9h-10.8V67.3h10.8v30.2h34.8V67.3h10.7V135.2z"/>
				<path class="st0" d="M380.1,70.9c0,3.6-2.8,6.3-6.4,6.3s-6.3-2.7-6.3-6.3c0-3.5,2.7-6.2,6.3-6.2S380.1,67.4,380.1,70.9z
					 M368.3,135.2V82.9h10.8v52.2H368.3z"/>
				<path class="st0" d="M403.4,119.2c0,1.8,0,3.3,0.1,4.9c0.2,3,1.6,3.9,6.2,3.5v7.6c-2.2,0.3-4.6,0.5-7.1,0.5
					c-5.7,0-9.5-2.1-9.9-8.8c-0.1-2-0.1-4.3-0.1-7.5V62.9h10.8V119.2z"/>
				<path class="st0" d="M429.2,119.2c0,1.8,0,3.3,0.1,4.9c0.2,3,1.6,3.9,6.2,3.5v7.6c-2.2,0.3-4.6,0.5-7.1,0.5
					c-5.7,0-9.5-2.1-9.9-8.8c-0.1-2-0.1-4.3-0.1-7.5V62.9h10.8V119.2z"/>
				<path class="st0" d="M514.2,135.2h-46.9V67.3h45.9v8.6h-35.1v21h32.4v8.6h-32.4v21h36.1V135.2z"/>
				<path class="st0" d="M571.7,135.2h-10.8v-8.3l-3.9,5.7c-3,2.4-8.4,3.9-13.7,3.9c-14.9,0-23.5-11.3-23.5-26.7
					c0-19.1,11.8-28.3,25.3-28.3c4.3,0,9.7,1.2,12.4,3.2l3.4,5.2V62.9h10.8V135.2z M560.9,109.6v-2.8c0-12.7-7.7-17.4-14.7-17.4
					c-8.6,0-15,6.6-15,19.6c0,11.3,5.2,19.7,14.6,19.7C553.9,128.7,560.9,123.6,560.9,109.6z"/>
				<path class="st0" d="M631.1,135.2h-10.7v-8.9l-3.6,6.5c-4.1,3-8,3.8-13.2,3.8c-10.8,0-17.1-6.1-18.3-13.3
					c-0.4-2.7-0.5-5-0.5-9.2V82.9h10.7v28.9c0,1.7,0.1,4.5,0.4,7.2c0.8,5.7,4.5,9.4,11.2,9.4c7.6,0,13.3-5.8,13.3-20.9V82.9h10.7
					V135.2z"/>
				<path class="st0" d="M689.2,101h-10.9c-1.6-8-5.8-11.6-12.2-11.6c-7.6,0-13.6,6-13.6,19.1c0,14.2,5.9,20.2,13.2,20.2
					c6.2,0,10.6-3.7,12.2-10.8h11c-2.5,12.5-11.5,18.7-23.8,18.7c-13.7,0-24-8.7-24-27.2c0-17.8,11.6-27.7,25.3-27.7
					C679.5,81.6,687.9,89.5,689.2,101z"/>
				<path class="st0" d="M727.6,127.6l-2.7,5.6c-3.5,2.5-8.1,3.3-13,3.3c-9.2,0-16.8-5.3-16.8-15c0-11.6,9.2-17.9,29-17.9h3.3v-1.3
					c0-2,0-3.7-0.2-5.7c-0.3-4.2-3-7.2-9.1-7.2c-6.3,0-9.5,3.5-10.1,10h-10.8c0.7-11.4,9.2-17.9,21.1-17.9
					c13.5,0,18.8,5.7,19.7,14.6c0.2,2.2,0.3,4.9,0.3,7.4v18.4c0,3.9,0.2,7.5,1,13.3h-10.7L727.6,127.6z M727.5,115.6v-4.8
					c-12.7-1-20.9,1.9-20.9,9.8c0,5.5,3.6,8.1,9.3,8.1C722.7,128.7,727.5,124.1,727.5,115.6z"/>
				<path class="st0" d="M765,118.3c0,1.8,0,3,0.1,4.3c0.4,5.1,2.4,6.2,9.4,5.5v7.5c-2.8,0.4-5.3,0.6-8,0.6c-8.2,0-11.7-3-12.2-9.9
					c-0.1-1.8-0.1-4-0.1-7V90.9h-7.4v-7.6h7.4V70.8H765v12.5h10.2v7.6H765V118.3z"/>
				<path class="st0" d="M796.8,70.9c0,3.6-2.8,6.3-6.4,6.3s-6.3-2.7-6.3-6.3c0-3.5,2.7-6.2,6.3-6.2S796.8,67.4,796.8,70.9z
					 M785,135.2V82.9h10.8v52.2H785z"/>
				<path class="st0" d="M858.7,109c0,15.2-8.9,27.5-26.5,27.5c-17.6,0-26.5-12.3-26.5-27.5s8.9-27.4,26.5-27.4
					C849.8,81.6,858.7,93.8,858.7,109z M847.2,109c0-11.8-5.5-19.6-14.9-19.6c-9.5,0-15,7.8-15,19.6s5.5,19.7,15,19.7
					C841.7,128.7,847.2,120.8,847.2,109z"/>
				<path class="st0" d="M914.7,105.8v29.4h-10.8v-28.2c0-2.5,0-4.7-0.2-7.4c-0.5-5.9-3.6-10-11-10c-7.5,0-13.6,5.9-13.6,22.2v23.4
					h-10.8V82.9h10.8v8.7l3.5-6c4.1-3.1,8-4,13.2-4c11.2,0,17.6,5.8,18.6,14.9C914.6,99.2,914.7,101.5,914.7,105.8z"/>
				<path class="st0" d="M309.9,199.8l-7.4,22.4H291l24.4-67.9h14l23.7,67.9h-11.7l-7.4-22.4H309.9z M331.1,191.3l-8.9-27.9
					l-9.4,27.9H331.1z"/>
				<path class="st0" d="M396.7,185h-11c-1.1-5.5-4.3-8.8-9.6-8.8c-5.1,0-7.6,2.9-7.6,6.8c0,4.7,3.8,6.7,11.6,8.8
					c11.4,3,17.4,7.5,17.4,16.7c0,10.1-8.9,15.1-20.4,15.1c-11.6,0-20.2-5.2-21.6-17h10.9c1.3,6.7,5.7,9.3,11.1,9.3c5,0,9-2.2,9-6.7
					c0-4.5-3.5-7-12.4-9.3c-9.5-2.5-16.6-6.5-16.6-15.6c0-9.7,7.7-15.6,19.3-15.6C388.8,168.7,395.5,175.5,396.7,185z"/>
				<path class="st0" d="M443.5,185h-11c-1.1-5.5-4.3-8.8-9.6-8.8c-5.1,0-7.6,2.9-7.6,6.8c0,4.7,3.8,6.7,11.6,8.8
					c11.4,3,17.4,7.5,17.4,16.7c0,10.1-8.9,15.1-20.4,15.1c-11.6,0-20.2-5.2-21.6-17h10.9c1.3,6.7,5.7,9.3,11.1,9.3c5,0,9-2.2,9-6.7
					c0-4.5-3.5-7-12.4-9.3c-9.5-2.5-16.6-6.5-16.6-15.6c0-9.7,7.7-15.6,19.3-15.6C435.6,168.7,442.3,175.5,443.5,185z"/>
				<path class="st0" d="M502.6,196.1c0,15.2-8.9,27.5-26.5,27.5c-17.6,0-26.5-12.3-26.5-27.5s8.9-27.4,26.5-27.4
					C493.7,168.7,502.6,180.9,502.6,196.1z M491.1,196.1c0-11.8-5.5-19.6-14.9-19.6c-9.5,0-15,7.8-15,19.6s5.5,19.7,15,19.7
					C485.6,215.8,491.1,207.9,491.1,196.1z"/>
				<path class="st0" d="M556.3,188.1h-10.9c-1.6-8-5.8-11.6-12.2-11.6c-7.6,0-13.6,6-13.6,19.1c0,14.2,5.9,20.2,13.2,20.2
					c6.2,0,10.6-3.7,12.2-10.8h11c-2.5,12.5-11.5,18.7-23.8,18.7c-13.7,0-24-8.7-24-27.2c0-17.8,11.6-27.7,25.3-27.7
					C546.7,168.7,555,176.6,556.3,188.1z"/>
				<path class="st0" d="M577.4,158.1c0,3.6-2.8,6.3-6.4,6.3s-6.3-2.7-6.3-6.3c0-3.5,2.7-6.2,6.3-6.2S577.4,154.5,577.4,158.1z
					 M565.6,222.3V170h10.8v52.2H565.6z"/>
				<path class="st0" d="M619.4,214.7l-2.7,5.6c-3.5,2.5-8.1,3.3-13,3.3c-9.2,0-16.8-5.3-16.8-15c0-11.6,9.2-17.9,29-17.9h3.3v-1.3
					c0-2,0-3.7-0.2-5.7c-0.3-4.2-3-7.2-9.1-7.2c-6.3,0-9.5,3.5-10.1,10h-10.8c0.7-11.4,9.2-17.9,21.1-17.9
					c13.5,0,18.8,5.7,19.7,14.6c0.2,2.2,0.3,4.9,0.3,7.4V209c0,3.9,0.2,7.5,1,13.3h-10.7L619.4,214.7z M619.3,202.7v-4.8
					c-12.7-1-20.9,1.9-20.9,9.8c0,5.5,3.6,8.1,9.3,8.1C614.5,215.8,619.3,211.2,619.3,202.7z"/>
				<path class="st0" d="M656.8,205.4c0,1.8,0,3,0.1,4.3c0.4,5.1,2.4,6.2,9.4,5.5v7.5c-2.8,0.4-5.3,0.6-8,0.6
					c-8.2,0-11.7-3-12.2-9.9c-0.1-1.8-0.1-4-0.1-7V178h-7.4v-7.6h7.4V158h10.7v12.5H667v7.6h-10.2V205.4z"/>
				<path class="st0" d="M720.4,199.2H683c0.9,12.5,6.6,16.6,13.7,16.6c6.3,0,11.2-3.8,12.3-10.4h10.9
					c-2.3,12.4-12.2,18.3-23.6,18.3c-14,0-24.5-8.9-24.5-27.3c0-16.5,10.5-27.6,25.6-27.6c15.1,0,23.3,11.4,23.3,26.2
					C720.6,195.8,720.6,197.3,720.4,199.2z M683.1,191.6h26.5c-0.8-9.6-5-15-12.6-15C689.6,176.5,684.2,181.6,683.1,191.6z"/>
				<path class="st0" d="M767.6,185h-11c-1.1-5.5-4.3-8.8-9.6-8.8c-5.1,0-7.6,2.9-7.6,6.8c0,4.7,3.8,6.7,11.6,8.8
					c11.4,3,17.4,7.5,17.4,16.7c0,10.1-8.9,15.1-20.4,15.1c-11.6,0-20.2-5.2-21.6-17h10.9c1.3,6.7,5.7,9.3,11.1,9.3c5,0,9-2.2,9-6.7
					c0-4.5-3.5-7-12.4-9.3c-9.5-2.5-16.6-6.5-16.6-15.6c0-9.7,7.7-15.6,19.3-15.6C759.8,168.7,766.5,175.5,767.6,185z"/>
			</g>
		</g>
	</g>
	<g>
		<linearGradient id="SVGID_1_" gradientUnits="userSpaceOnUse" x1="126.9677" y1="35.2698" x2="245.7953" y2="176.6487">
			<stop  offset="0" style="stop-color:#0B5CD0"/>
			<stop  offset="0.9969" style="stop-color:#111E8E"/>
		</linearGradient>
		<path class="st1" d="M244.9,72.3c-5.5-3.6-11.8-6.8-18.7-9.5c-21.2-8.3-46.5-12.2-61.5-12.2c-12.3,0-31.5,2.6-49.6,8.1l0,4.2
			c0,8.2,0.3,15.5,1,21.9c16.6-5.9,36.6-9,48.6-9c15,0,42.5,4.8,60.3,14c-1,13.4-5,32.5-13.5,52.5c-9.1,21.2-21.9,39.9-37.6,55.1
			c4.1,3.3,10.8,8.5,18,12.5l3.4,1.9c43.1-44,55.3-101.5,55.3-129V76L244.9,72.3z"/>
		<linearGradient id="SVGID_2_" gradientUnits="userSpaceOnUse" x1="129.3333" y1="33.2815" x2="248.161" y2="174.6604">
			<stop  offset="0" style="stop-color:#0B5CD0"/>
			<stop  offset="0.9969" style="stop-color:#111E8E"/>
		</linearGradient>
		<path class="st2" d="M244,73.6c-5.1-3.4-11.2-6.5-18.3-9.3c-21.1-8.3-46.4-12.1-60.9-12.1c-10.3,0-28.9,2-48,7.7l0,3
			c0,0.9,0,1.9,0,2.8c16.2-4,31.2-5.5,40-5.5c14.6,0,39.9,3.8,60.9,12.1c7.1,2.8,13.3,5.9,18.3,9.3l4.9,3.3v5.9
			c0,24.9-10,76.1-46.5,118.7l0.5,0.3c42.6-44.1,53.9-100.4,53.9-126.9v-5.9L244,73.6z"/>
		<linearGradient id="SVGID_3_" gradientUnits="userSpaceOnUse" x1="71.5876" y1="81.8162" x2="190.4153" y2="223.1951">
			<stop  offset="0" style="stop-color:#0B5CD0"/>
			<stop  offset="0.9969" style="stop-color:#111E8E"/>
		</linearGradient>
		<path class="st3" d="M118,142.3c-8.6-20-12.5-39.1-13.5-52.5c-1.1-8.3-1.5-17.7-1.5-26.9c-6.7,2.7-13,5.8-18.4,9.4L79,76v6.7
			c0,31.9,16.4,104.1,78.4,148.9l7.4,5.3l7.4-5.3c4.9-3.6,9.5-7.3,13.9-11.1c-8.5-4.7-16.6-11-21.3-14.9
			C144.8,189.2,128.8,167.5,118,142.3z"/>
		<linearGradient id="SVGID_4_" gradientUnits="userSpaceOnUse" x1="64.6925" y1="87.6115" x2="183.5202" y2="228.9904">
			<stop  offset="0" style="stop-color:#0B5CD0"/>
			<stop  offset="0.9969" style="stop-color:#111E8E"/>
		</linearGradient>
		<path class="st4" d="M167.2,228.2C103,181.8,86,107.1,86,74.1v-0.8c-0.2,0.1-0.4,0.2-0.5,0.4l-4.9,3.3v5.9
			c0,31.6,16.2,103.2,77.7,147.6l6.4,4.6l5.9-4.3L167.2,228.2z"/>
	</g>
</g>
</svg>
