<svg id="Layer_1" data-name="Layer 1" xmlns="http://www.w3.org/2000/svg" viewBox="0 0 728 234"><defs><style>.cls-1{fill:#fff;}</style></defs><title>LANDING LOGO</title><path class="cls-1" d="M257.16,108h-7.87V86.81H223.74V108H215.8V58.23h7.94V80.38h25.55V58.23h7.87Z"/><path class="cls-1" d="M276,60.9a4.53,4.53,0,0,1-4.69,4.62A4.59,4.59,0,1,1,276,60.9ZM267.33,108V69.7h7.94V108Z"/><path class="cls-1" d="M293.1,96.33c0,1.3,0,2.46.07,3.61.14,2.17,1.15,2.89,4.55,2.6v5.56a40.44,40.44,0,0,1-5.2.36c-4.19,0-7-1.52-7.29-6.42-.07-1.45-.07-3.18-.07-5.49V55h7.94Z"/><path class="cls-1" d="M312,96.33c0,1.3,0,2.46.07,3.61.14,2.17,1.15,2.89,4.54,2.6v5.56a40.15,40.15,0,0,1-5.19.36c-4.19,0-7-1.52-7.29-6.42-.07-1.45-.07-3.18-.07-5.49V55H312Z"/><path class="cls-1" d="M374.43,108H340V58.23h33.7V64.5H348V80h23.74v6.28H348v15.44h26.48Z"/><path class="cls-1" d="M416.65,108h-7.94V102l-2.88,4.19c-2.17,1.73-6.14,2.89-10,2.89-11,0-17.25-8.3-17.25-19.56,0-14,8.67-20.79,18.55-20.79,3.18,0,7.15.87,9.1,2.38l2.52,3.83V55h7.94Zm-7.94-18.77v-2c0-9.31-5.63-12.78-10.75-12.78-6.28,0-11,4.84-11,14.37,0,8.3,3.82,14.43,10.68,14.43C403.59,103.26,408.71,99.51,408.71,89.26Z"/><path class="cls-1" d="M460.25,108h-7.87v-6.57l-2.67,4.76A15.11,15.11,0,0,1,440,109c-7.94,0-12.56-4.48-13.43-9.75a43.21,43.21,0,0,1-.36-6.78V69.7h7.87V90.92a51,51,0,0,0,.29,5.27c.57,4.19,3.32,6.93,8.22,6.93,5.56,0,9.75-4.26,9.75-15.37v-18h7.87Z"/><path class="cls-1" d="M502.82,83h-8c-1.15-5.84-4.26-8.52-8.95-8.52-5.55,0-10,4.41-10,14,0,10.39,4.33,14.79,9.68,14.79,4.54,0,7.79-2.74,8.94-7.94h8.09c-1.81,9.17-8.45,13.72-17.47,13.72-10,0-17.61-6.35-17.61-20,0-13.06,8.52-20.35,18.55-20.35C495.75,68.69,501.89,74.54,502.82,83Z"/><path class="cls-1" d="M531,102.47l-1.95,4.11c-2.59,1.81-5.91,2.46-9.52,2.46-6.79,0-12.34-3.9-12.34-11.05,0-8.51,6.78-13.13,21.29-13.13H531v-.94c0-1.44,0-2.74-.14-4.19-.22-3.1-2.17-5.27-6.72-5.27s-7,2.6-7.43,7.37h-7.94c.51-8.38,6.79-13.14,15.52-13.14,9.89,0,13.78,4.19,14.43,10.68.15,1.59.22,3.61.22,5.42V98.28a66,66,0,0,0,.72,9.75h-7.87ZM531,93.66V90.13c-9.31-.73-15.37,1.37-15.37,7.21,0,4,2.67,5.92,6.85,5.92C527.43,103.26,531,99.87,531,93.66Z"/><path class="cls-1" d="M558.47,95.61c0,1.3,0,2.17.07,3.18.29,3.75,1.73,4.54,6.93,4v5.48a40.45,40.45,0,0,1-5.85.44c-6,0-8.59-2.24-9-7.29-.07-1.3-.07-3-.07-5.13V75.55h-5.41V70h5.41V60.82h7.87V70H566v5.56h-7.5Z"/><path class="cls-1" d="M581.85,60.9a4.53,4.53,0,0,1-4.69,4.62,4.59,4.59,0,1,1,4.69-4.62ZM573.19,108V69.7h7.94V108Z"/><path class="cls-1" d="M627.25,88.83c0,11.18-6.57,20.21-19.42,20.21s-19.41-9-19.41-20.21,6.49-20.14,19.41-20.14S627.25,77.64,627.25,88.83Zm-8.45,0c0-8.66-4-14.37-11-14.37s-11,5.71-11,14.37,4,14.43,11,14.43S618.8,97.49,618.8,88.83Z"/><path class="cls-1" d="M668.31,86.45V108h-7.94V87.31c0-1.8,0-3.46-.14-5.41-.36-4.33-2.67-7.36-8.09-7.36s-10,4.33-10,16.31V108h-7.93V69.7h7.93v6.35l2.6-4.4c3-2.31,5.85-3,9.67-3,8.23,0,12.92,4.26,13.64,11C668.24,81.61,668.31,83.34,668.31,86.45Z"/><path class="cls-1" d="M224.46,155.49,219.05,172h-8.44l17.9-49.8h10.24l17.4,49.8h-8.59l-5.41-16.46Zm15.59-6.28-6.56-20.49-6.93,20.49Z"/><path class="cls-1" d="M288.19,144.59h-8.08c-.8-4-3.18-6.42-7.08-6.42-3.75,0-5.55,2.09-5.55,5,0,3.47,2.81,4.91,8.51,6.42,8.38,2.17,12.78,5.49,12.78,12.27,0,7.44-6.57,11.12-14.94,11.12S259,169.13,258,160.47h8c.94,4.91,4.19,6.86,8.16,6.86,3.68,0,6.64-1.59,6.64-4.91s-2.6-5.12-9.1-6.86c-7-1.8-12.19-4.76-12.19-11.47,0-7.15,5.63-11.48,14.14-11.48C282.42,132.61,287.32,137.59,288.19,144.59Z"/><path class="cls-1" d="M322.54,144.59h-8.08c-.79-4-3.17-6.42-7.07-6.42s-5.56,2.09-5.56,5c0,3.47,2.82,4.91,8.52,6.42,8.37,2.17,12.77,5.49,12.77,12.27,0,7.44-6.57,11.12-14.94,11.12s-14.79-3.83-15.88-12.49h8c.94,4.91,4.19,6.86,8.16,6.86,3.68,0,6.64-1.59,6.64-4.91s-2.6-5.12-9.09-6.86c-7-1.8-12.2-4.76-12.2-11.47,0-7.15,5.63-11.48,14.14-11.48C316.77,132.61,321.68,137.59,322.54,144.59Z"/><path class="cls-1" d="M365.92,152.75c0,11.19-6.57,20.21-19.42,20.21s-19.41-9-19.41-20.21,6.5-20.14,19.41-20.14S365.92,141.56,365.92,152.75Zm-8.44,0c0-8.66-4.05-14.36-11-14.36s-11,5.7-11,14.36,4,14.44,11,14.44S357.48,161.41,357.48,152.75Z"/><path class="cls-1" d="M405.32,146.9h-8c-1.15-5.84-4.26-8.51-8.95-8.51-5.55,0-10,4.4-10,14,0,10.39,4.33,14.8,9.67,14.8,4.55,0,7.8-2.75,8.95-7.94h8.09c-1.81,9.16-8.45,13.71-17.47,13.71-10,0-17.61-6.35-17.61-20,0-13.07,8.52-20.36,18.55-20.36C398.25,132.61,404.39,138.46,405.32,146.9Z"/><path class="cls-1" d="M420.84,124.82a4.53,4.53,0,0,1-4.69,4.62,4.59,4.59,0,1,1,4.69-4.62ZM412.18,172V133.62h7.94V172Z"/><path class="cls-1" d="M451.66,166.39l-2,4.12c-2.6,1.8-5.92,2.45-9.53,2.45-6.78,0-12.34-3.9-12.34-11,0-8.52,6.78-13.14,21.29-13.14h2.45v-.94a41.7,41.7,0,0,0-.14-4.18c-.22-3.11-2.17-5.27-6.71-5.27s-7,2.6-7.44,7.36h-7.94c.51-8.37,6.79-13.14,15.52-13.14,9.89,0,13.79,4.19,14.44,10.69.14,1.58.21,3.6.21,5.41v13.5a66.21,66.21,0,0,0,.73,9.74h-7.87Zm-.08-8.8v-3.54c-9.31-.72-15.37,1.37-15.37,7.22,0,4,2.67,5.92,6.86,5.92C448.05,167.19,451.58,163.79,451.58,157.59Z"/><path class="cls-1" d="M479.08,159.53c0,1.3,0,2.17.07,3.18.29,3.75,1.73,4.55,6.93,4v5.49a40.39,40.39,0,0,1-5.84.43c-6,0-8.59-2.24-8.95-7.29-.08-1.3-.08-3-.08-5.12V139.47H465.8v-5.56h5.41v-9.16h7.87v9.16h7.51v5.56h-7.51Z"/><path class="cls-1" d="M525.78,155h-27.5c.65,9.16,4.83,12.2,10,12.2a8.72,8.72,0,0,0,9-7.66h8c-1.66,9.1-9,13.43-17.32,13.43-10.25,0-18-6.5-18-20.06,0-12.13,7.72-20.29,18.77-20.29s17.1,8.38,17.1,19.2A29.65,29.65,0,0,1,525.78,155Zm-27.43-5.56h19.41c-.57-7.07-3.68-11-9.23-11S499.22,142.07,498.35,149.43Z"/><path class="cls-1" d="M560.42,144.59h-8.09c-.79-4-3.17-6.42-7.07-6.42s-5.56,2.09-5.56,5c0,3.47,2.82,4.91,8.52,6.42,8.37,2.17,12.78,5.49,12.78,12.27,0,7.44-6.57,11.12-14.94,11.12s-14.8-3.83-15.88-12.49h8c.94,4.91,4.19,6.86,8.15,6.86,3.69,0,6.64-1.59,6.64-4.91s-2.59-5.12-9.09-6.86c-7-1.8-12.2-4.76-12.2-11.47,0-7.15,5.63-11.48,14.15-11.48C554.64,132.61,559.55,137.59,560.42,144.59Z"/><path class="cls-1" d="M176.8,61.87a73.43,73.43,0,0,0-13.69-7C147.58,48.79,129,46,118,46c-9,0-23.08,1.89-36.42,5.93V55a156.33,156.33,0,0,0,.73,16.06c12.21-4.35,26.87-6.63,35.69-6.63,11,0,31.19,3.55,44.28,10.28a127,127,0,0,1-9.95,38.56,123.65,123.65,0,0,1-27.59,40.41,90.81,90.81,0,0,0,13.19,9.16l2.47,1.36c31.62-32.31,40.56-74.46,40.56-94.65V64.62Z"/><path class="cls-1" d="M176.14,62.86A71.75,71.75,0,0,0,162.68,56c-15.46-6.09-34-8.87-44.73-8.87-7.53,0-21.19,1.48-35.22,5.63V55c0,.69,0,1.36,0,2a131.72,131.72,0,0,1,29.39-4c10.7,0,29.26,2.77,44.72,8.87a72.17,72.17,0,0,1,13.47,6.84l3.57,2.39v4.3c0,18.26-7.37,55.83-34.11,87.13l.36.2c31.23-32.35,39.59-73.72,39.59-93.17v-4.3Z"/><path class="cls-1" d="M83.63,113.27a127,127,0,0,1-9.95-38.56A158.5,158.5,0,0,1,72.59,55a72.77,72.77,0,0,0-13.48,6.88L55,64.62v4.93C55,93,67,146,112.55,178.84l5.4,3.91,5.41-3.91q5.42-3.92,10.21-8.17a102.86,102.86,0,0,1-15.62-11A121.92,121.92,0,0,1,83.63,113.27Z"/><path class="cls-1" d="M119.77,176.33c-47.14-34.06-59.6-88.91-59.6-113.16V62.6l-.4.26-3.58,2.39v4.3c0,23.21,11.93,75.72,57.05,108.32l4.71,3.41,4.34-3.13Z"/></svg>