<?xml version="1.0" encoding="utf-8"?>
<!-- Generator: Adobe Illustrator 22.0.1, SVG Export Plug-In . SVG Version: 6.00 Build 0)  -->
<svg version="1.1" id="Layer_1" xmlns="http://www.w3.org/2000/svg" xmlns:xlink="http://www.w3.org/1999/xlink" x="0px" y="0px"
	 viewBox="0 0 442 441" style="enable-background:new 0 0 442 441;" xml:space="preserve">
<style type="text/css">
	.st0{fill:url(#SVGID_1_);}
	.st1{fill:url(#SVGID_2_);}
	.st2{fill:url(#SVGID_3_);}
	.st3{fill:url(#SVGID_4_);}
	.st4{fill:url(#SVGID_5_);}
</style>
<g>
	<linearGradient id="SVGID_1_" gradientUnits="userSpaceOnUse" x1="27.4311" y1="78.5427" x2="393.8706" y2="452.8626">
		<stop  offset="0" style="stop-color:#0B5CD0"/>
		<stop  offset="0.9969" style="stop-color:#111E8E"/>
	</linearGradient>
	<path class="st0" d="M366.5,41c0,2,0,3.4,0,4.8c0,27.1,0,54.3-0.1,81.4c0,2.7,0.8,4.4,2.9,6.2c21.6,18.6,43.1,37.3,64.5,56
		c1.2,1.1,2.3,3.2,2.3,4.8c0.1,80.3,0.1,160.6,0.1,241c0,1,0,1.9,0,3.2c-144.1,0-288,0-432.2,0c-0.1-1.3-0.2-2.6-0.2-3.9
		c0-79.8,0-159.7-0.1-239.5c0-2.7,0.8-4.4,2.8-6.2c21.4-18.4,42.7-37,64.1-55.4c2-1.8,2.9-3.5,2.8-6.2c-0.1-27.1-0.1-54.3-0.1-81.4
		c0-1.4,0-2.9,0-4.8c1.7,0,3.2,0,4.6,0c31.9,0,63.8,0,95.7-0.1c2.1,0,4.5-0.9,6.1-2.3c12.1-10.2,24-20.6,35.9-31
		c1.4-1.2,2.7-2.3,4.3-3.7c8.6,7.5,17.1,14.8,25.6,22.1c5,4.3,9.9,8.7,15,12.8c1.5,1.2,3.6,2,5.4,2c32,0.1,64,0.1,96,0.1
		C363.3,41,364.7,41,366.5,41z M352.5,55.2c-88.5,0-176.5,0-264.8,0c-0.1,1.4-0.2,2.6-0.2,3.8c0,61.8,0,123.6-0.1,185.4
		c0,2.6,0.9,4.2,2.9,5.8c22.2,17.8,44.3,35.8,66.5,53.6c1.7,1.4,4.3,2.3,6.5,2.3c37.2,0.1,74.5,0.1,111.7,0c2.2,0,4.8-0.9,6.5-2.3
		c22.8-18.1,45.4-36.3,68.2-54.4c2.2-1.7,2.9-3.4,2.9-6.1c-0.1-61.3-0.1-122.6-0.1-184C352.5,58,352.5,56.7,352.5,55.2z
		 M409.5,424.4c-1.2-1.1-1.7-1.6-2.2-2.1c-40.1-33.6-80.2-67.2-120.4-100.7c-1.2-1-3.3-1.5-4.9-1.5c-41.4-0.1-82.7-0.1-124.1,0
		c-1.8,0-4,0.9-5.5,2c-39.7,33.1-79.3,66.3-119,99.5c-0.9,0.7-1.6,1.6-2.9,2.7C157.1,424.4,282.9,424.4,409.5,424.4z M295.5,310.5
		c42.3,35.5,84.3,70.6,126.5,106c0-69.4,0-138,0-207.2C379.7,243.2,337.8,276.7,295.5,310.5z M17.9,416.6
		c42.2-35.3,83.9-70.2,125.8-105.4c-42.1-34.1-83.8-67.8-125.8-101.8C17.9,278.8,17.9,347.3,17.9,416.6z M73.2,236.2
		c0-29.1,0-57.4,0-86.5c-17.4,15.1-34.4,29.8-51.6,44.7C38.8,208.4,55.7,222,73.2,236.2z M366.8,149.8c0,28.9,0,57.1,0,85.9
		c17.4-13.9,34.3-27.5,51.5-41.2C401.1,179.4,384.2,164.8,366.8,149.8z M198.9,40.8c14.4,0,27.9,0,42.2,0
		c-7.4-6.4-14.2-12.3-21.1-18.3C212.9,28.6,206.2,34.5,198.9,40.8z"/>
	<linearGradient id="SVGID_2_" gradientUnits="userSpaceOnUse" x1="76.7116" y1="30.2997" x2="443.1511" y2="404.6196">
		<stop  offset="0" style="stop-color:#0B5CD0"/>
		<stop  offset="0.9969" style="stop-color:#111E8E"/>
	</linearGradient>
	<path class="st1" d="M292.8,215.9c-4,8.2-9.2,14.3-15.9,19.3c-11.7,8.8-25.2,12.9-39.6,14.2c-16.3,1.4-32.3,0.3-47.9-5.2
		c-22.3-7.9-35.9-23.7-40.8-46.6c-5-23.4-0.5-45.3,13.5-64.8c13.3-18.4,32.2-26.4,54.2-28.2c13.9-1.1,27.5,0.3,40.3,6.3
		c19.2,9,29.6,24.5,31.8,45.2c2.3,22.1-6,40-23.8,53.3c-7.3,5.4-15.9,7.6-25,7.7c-6.5,0.1-12.2-1.1-14.7-8.4
		c-7.8,7.3-16.8,9.9-26.9,7.8c-12.5-2.6-21.3-12.6-22.4-26c-1.5-17.7,4-33.2,16.7-45.7c8.3-8.1,18.4-11.1,29.9-9
		c4.7,0.8,5.9,1.7,13.9,8.5c0.1,0,0.3-0.1,0.3-0.1c2.2-7.1,2.2-7.1,9.8-7.1c3.8,0,7.5,0,11.8,0c-1.4,6.7-2.7,13.1-4,19.4
		c-2.7,12.9-5.4,25.7-7.9,38.6c-0.4,1.9-0.1,5.1,1.1,5.8c1.3,0.9,4.3,0.3,6-0.6c12.7-7,19.6-18.2,21.5-32.1
		c3.4-25.3-13.2-45.8-39.1-49.1c-11.5-1.5-22.9-1.1-34,2.4c-22.5,7-34.5,23.4-39.3,45.7c-3,13.9-2,27.6,4.7,40.5
		c6.5,12.5,16.8,20.4,30,24.3c17.9,5.3,36,5.5,54,0.5c9.5-2.6,17.6-7.5,24.3-14.8c0.7-0.8,1.7-1.7,2.6-1.7
		C282.6,215.8,287.3,215.9,292.8,215.9z M194.9,185.8c0.2,1.7,0.4,4.5,1,7.2c2.2,8.5,9.9,12.7,18,9.4c2.9-1.2,6-3.1,7.9-5.5
		c8.3-10.8,11.7-23.1,9.5-36.6c-1.6-9.6-10.9-13.9-19.8-9.9c-4.9,2.2-8.3,5.9-10.7,10.5C197,168.3,195.3,176.3,194.9,185.8z"/>
	<linearGradient id="SVGID_3_" gradientUnits="userSpaceOnUse" x1="-8.5883" y1="113.8038" x2="357.8512" y2="488.1237">
		<stop  offset="0" style="stop-color:#0B5CD0"/>
		<stop  offset="0.9969" style="stop-color:#111E8E"/>
	</linearGradient>
	<path class="st2" d="M254.7,382.7c-4.5,0-8.8,0-13.4,0c0-4.5,0-8.9,0-13.5c4.4,0,8.8,0,13.4,0C254.7,373.6,254.7,377.9,254.7,382.7
		z"/>
	<linearGradient id="SVGID_4_" gradientUnits="userSpaceOnUse" x1="-22.8989" y1="127.8132" x2="343.5406" y2="502.1331">
		<stop  offset="0" style="stop-color:#0B5CD0"/>
		<stop  offset="0.9969" style="stop-color:#111E8E"/>
	</linearGradient>
	<path class="st3" d="M213.2,369.1c4.5,0,8.8,0,13.4,0c0,4.6,0,9,0,13.5c-4.5,0-8.8,0-13.4,0C213.2,378.2,213.2,373.8,213.2,369.1z"
		/>
	<linearGradient id="SVGID_5_" gradientUnits="userSpaceOnUse" x1="-37.1192" y1="141.7341" x2="329.3203" y2="516.0541">
		<stop  offset="0" style="stop-color:#0B5CD0"/>
		<stop  offset="0.9969" style="stop-color:#111E8E"/>
	</linearGradient>
	<path class="st4" d="M198.8,369.2c0,4.6,0,8.8,0,13.4c-4.4,0-8.9,0-13.6,0c0-4.3,0-8.7,0-13.4C189.7,369.2,194.1,369.2,198.8,369.2
		z"/>
</g>
</svg>
