<?xml version="1.0" encoding="utf-8"?>
<!-- Generator: Adobe Illustrator 22.0.1, SVG Export Plug-In . SVG Version: 6.00 Build 0)  -->
<svg version="1.1" id="Layer_1" xmlns="http://www.w3.org/2000/svg" xmlns:xlink="http://www.w3.org/1999/xlink" x="0px" y="0px"
	 viewBox="0 0 302.1 492.2" style="enable-background:new 0 0 302.1 492.2;" xml:space="preserve">
<style type="text/css">
	.st0{fill:url(#SVGID_1_);}
	.st1{fill:url(#SVGID_2_);}
	.st2{fill:url(#SVGID_3_);}
	.st3{fill:url(#SVGID_4_);}
</style>
<g>
	<linearGradient id="SVGID_1_" gradientUnits="userSpaceOnUse" x1="2.677" y1="10.3637" x2="301.487" y2="483.4795">
		<stop  offset="0" style="stop-color:#0B5CD0"/>
		<stop  offset="0.9969" style="stop-color:#111E8E"/>
	</linearGradient>
	<path class="st0" d="M5.7,246c0-71.5,0-142.9,0-214.4c0-13.8,8.1-24.4,20.5-26.8c2.4-0.5,4.9-0.5,7.3-0.5c78.1,0,156.2,0,234.3,0
		c18.7,0,28.9,10.2,28.9,28.8c0,107.4,0,214.8,0,322.2c0,34.8-0.3,69.6,0.1,104.4c0.2,13.9-9.9,28.3-28.2,28.2
		c-78.4-0.4-156.8-0.4-235.2,0c-18,0.1-28-14.2-28-27.9C5.8,388.7,5.7,317.3,5.7,246z M21.5,388.6c86.7,0,173.1,0,259.4,0
		c0-102.3,0-204.2,0-306.1c-86.6,0-172.9,0-259.4,0C21.5,184.6,21.5,286.5,21.5,388.6z M21.3,404.7c0,18.8,0,37.1,0,55.5
		c0,8.8,3.2,11.9,12,11.9c78.5,0,157,0,235.6,0c9.1,0,12.3-3.1,12.3-12.1c0-17,0-34.1,0-51.1c0-1.4-0.1-2.8-0.2-4.2
		C194.3,404.7,108,404.7,21.3,404.7z M281.2,66.5c0-12.5,0.1-24.4,0-36.4c-0.1-6.8-3.8-10.2-10.7-10.2c-79.4,0-158.8,0-238.2,0
		c-7.3,0-10.9,3.5-10.9,10.8c-0.1,11.1,0,22.2,0,33.3c0,0.8,0.2,1.6,0.4,2.4C108.2,66.5,194.4,66.5,281.2,66.5z"/>
	<linearGradient id="SVGID_2_" gradientUnits="userSpaceOnUse" x1="-81.1853" y1="63.3294" x2="217.6247" y2="536.4452">
		<stop  offset="0" style="stop-color:#0B5CD0"/>
		<stop  offset="0.9969" style="stop-color:#111E8E"/>
	</linearGradient>
	<path class="st1" d="M153,457.2c-12.6,0-23.2-10.5-23.2-23.1c-0.1-12.6,10.5-23.2,23.1-23.2c12.6-0.1,23.2,10.5,23.2,23.1
		C176.1,446.5,165.6,457.1,153,457.2z M153,425.5c-4.6,0-8.6,3.9-8.6,8.5c0,4.6,3.9,8.6,8.5,8.6c4.5,0,8.6-3.9,8.6-8.5
		C161.5,429.5,157.5,425.5,153,425.5z"/>
	<linearGradient id="SVGID_3_" gradientUnits="userSpaceOnUse" x1="108.8092" y1="-56.6671" x2="407.6192" y2="416.4487">
		<stop  offset="0" style="stop-color:#0B5CD0"/>
		<stop  offset="0.9969" style="stop-color:#111E8E"/>
	</linearGradient>
	<path class="st2" d="M141,50.8c0-5,0-9.9,0-15c20.5,0,41,0,61.9,0c0,4.9,0,9.8,0,15C182.3,50.8,161.8,50.8,141,50.8z"/>
	<linearGradient id="SVGID_4_" gradientUnits="userSpaceOnUse" x1="68.8633" y1="-31.4381" x2="367.6733" y2="441.6776">
		<stop  offset="0" style="stop-color:#0B5CD0"/>
		<stop  offset="0.9969" style="stop-color:#111E8E"/>
	</linearGradient>
	<path class="st3" d="M121.2,40.2c-0.1,4-3.3,7.2-7.2,7.1c-4.1,0-7.3-3.5-7.1-7.7c0.2-4,3.4-7,7.4-6.8
		C118.3,33,121.3,36.2,121.2,40.2z"/>
</g>
</svg>
