<?xml version="1.0" encoding="utf-8"?>
<!-- Generator: Adobe Illustrator 22.0.1, SVG Export Plug-In . SVG Version: 6.00 Build 0)  -->
<svg version="1.1" id="Layer_1" xmlns="http://www.w3.org/2000/svg" xmlns:xlink="http://www.w3.org/1999/xlink" x="0px" y="0px"
	 viewBox="0 0 485.4 411.8" style="enable-background:new 0 0 485.4 411.8;" xml:space="preserve">
<style type="text/css">
	.st0{fill:url(#SVGID_1_);}
	.st1{fill:url(#SVGID_2_);}
	.st2{fill:url(#SVGID_3_);}
	.st3{fill:url(#SVGID_4_);}
	.st4{fill:url(#SVGID_5_);}
</style>
<g>
	<linearGradient id="SVGID_1_" gradientUnits="userSpaceOnUse" x1="0.6379" y1="-47.934" x2="460.4357" y2="349.968">
		<stop  offset="0" style="stop-color:#0B5CD0"/>
		<stop  offset="0.9969" style="stop-color:#111E8E"/>
	</linearGradient>
	<path class="st0" d="M109.2,408.2c0-7.1,0-13.9,0-21.2c40.6,0,81.1,0,122,0c0-20.8,0-41.1,0-61.8c-66.8,0-133.5,0-200.8,0
		c0-99.3,0-198.2,0-297.6c-9.3,0-18.2,0-27.2,0c0-7.4,0-14.3,0-21.5c159.4,0,318.8,0,478.4,0c0,7,0,14,0,21.4c-8.9,0-17.6,0-26.8,0
		c0,99.2,0,198.2,0,297.4c-67.3,0-134.1,0-201.1,0c0,20.7,0,41,0,61.8c40.5,0,81.1,0,121.9,0c0,7.4,0,14.3,0,21.5
		C286.9,408.2,198.2,408.2,109.2,408.2z M437.3,308.3c0-95.5,0-190.6,0-285.7c-130.2,0-260.1,0-389.9,0c0,95.4,0,190.4,0,285.7
		C177.4,308.3,307.2,308.3,437.3,308.3z"/>
	<linearGradient id="SVGID_2_" gradientUnits="userSpaceOnUse" x1="-29.2515" y1="-13.3952" x2="430.5463" y2="384.5068">
		<stop  offset="0" style="stop-color:#0B5CD0"/>
		<stop  offset="0.9969" style="stop-color:#111E8E"/>
	</linearGradient>
	<path class="st1" d="M182.7,70.5c54.9,0.2,99.5,45.1,99.1,99.8c-0.4,54.9-44.7,99-99.5,98.8c-55-0.1-99.5-44.9-99.1-99.6
		C83.7,114.5,128.1,70.3,182.7,70.5z M101.6,183.7c5,35.6,39.5,73.1,89.6,68.1c43.5-4.3,77-42.9,73.5-89.5
		c-2.7-35.9-38.2-74.3-69.2-73.3c0,1.9,0,3.7,0,5.6c0,24.5,0,48.9,0,73.4c0,12.2-3.5,15.7-15.9,15.7c-24.1,0-48.3,0-72.4,0
		C105.5,183.7,103.7,183.7,101.6,183.7z M101.4,165.4c25.3,0,50.5,0,75.7,0c0-25.9,0-51.3,0-76.8C134,93.4,103.7,130.6,101.4,165.4z
		"/>
	<linearGradient id="SVGID_3_" gradientUnits="userSpaceOnUse" x1="82.659" y1="-123.0513" x2="524.6616" y2="259.451">
		<stop  offset="0" style="stop-color:#0B5CD0"/>
		<stop  offset="0.9969" style="stop-color:#111E8E"/>
	</linearGradient>
	<path class="st2" d="M402.7,104.9c0,5.5,0,10.8,0,16.2c-31.6,0-62.9,0-94.6,0c0-5.3,0-10.6,0-16.2
		C339.5,104.9,370.9,104.9,402.7,104.9z"/>
	<linearGradient id="SVGID_4_" gradientUnits="userSpaceOnUse" x1="61.4838" y1="-87.6165" x2="496.4928" y2="288.8335">
		<stop  offset="0" style="stop-color:#0B5CD0"/>
		<stop  offset="0.9969" style="stop-color:#111E8E"/>
	</linearGradient>
	<path class="st3" d="M402.7,173.8c-31.7,0-63,0-94.7,0c0-4.7,0-9.4,0-14.3c31.5,0,63,0,94.7,0C402.7,164.3,402.7,168.9,402.7,173.8
		z"/>
	<linearGradient id="SVGID_5_" gradientUnits="userSpaceOnUse" x1="32.3014" y1="-58.0653" x2="472.3802" y2="322.7722">
		<stop  offset="0" style="stop-color:#0B5CD0"/>
		<stop  offset="0.9969" style="stop-color:#111E8E"/>
	</linearGradient>
	<path class="st4" d="M402.7,213.7c0,5.3,0,10.4,0,15.6c-31.6,0-62.9,0-94.6,0c0-5.1,0-10.2,0-15.6
		C339.4,213.7,370.9,213.7,402.7,213.7z"/>
</g>
</svg>
