<?xml version="1.0" encoding="utf-8"?>
<!-- Generator: Adobe Illustrator 22.0.1, SVG Export Plug-In . SVG Version: 6.00 Build 0)  -->
<svg version="1.1" id="Layer_1" xmlns="http://www.w3.org/2000/svg" xmlns:xlink="http://www.w3.org/1999/xlink" x="0px" y="0px"
	 viewBox="0 0 800 800" style="enable-background:new 0 0 800 800;" xml:space="preserve">
<style type="text/css">
	.st0{fill:#0B5CCE;}
</style>
<g>
	<g>
		<path class="st0" d="M300.9,470.3c14.3,24.3,21.5,49.6,21.5,76c0,41.9-13.8,77.1-41.3,105.7c-27.6,28.7-62.3,43-104.1,43
			c-39.7,0-73.3-13.7-100.8-41.3c-27.6-27.5-41.3-63.3-41.3-107.4c0-30.8,12.1-72.7,36.3-125.6L236.4,44h132.2L239.7,417.4
			C266.2,428.5,286.5,446.1,300.9,470.3z M697.4,470.3c14.3,24.3,21.5,49.6,21.5,76c0,41.9-13.8,77.1-41.3,105.7
			c-27.6,28.7-62.3,43-104.1,43c-39.7,0-73.3-13.7-100.8-41.3c-27.6-27.5-41.3-63.3-41.3-107.4c0-30.8,12.1-72.7,36.3-125.6L633,44
			h132.2L636.3,417.4C662.7,428.5,683.1,446.1,697.4,470.3z"/>
	</g>
</g>
</svg>
