<?xml version="1.0" encoding="utf-8"?>
<!-- Generator: Adobe Illustrator 22.1.0, SVG Export Plug-In . SVG Version: 6.00 Build 0)  -->
<svg version="1.1" id="Layer_1" xmlns="http://www.w3.org/2000/svg" xmlns:xlink="http://www.w3.org/1999/xlink" x="0px" y="0px"
	 viewBox="0 0 403.8 375.8" style="enable-background:new 0 0 403.8 375.8;" xml:space="preserve">
<style type="text/css">
	.st0{fill:url(#SVGID_1_);}
	.st1{fill:url(#SVGID_2_);}
	.st2{fill:url(#SVGID_3_);}
	.st3{fill:url(#SVGID_4_);}
	.st4{fill:url(#SVGID_5_);}
	.st5{fill:url(#SVGID_6_);}
	.st6{fill:url(#SVGID_7_);}
	.st7{fill:url(#SVGID_8_);}
</style>
<g>
	<g>
		<linearGradient id="SVGID_1_" gradientUnits="userSpaceOnUse" x1="-5.0059" y1="-53.9656" x2="449.4845" y2="346.7036">
			<stop  offset="0" style="stop-color:#0B5CD0"/>
			<stop  offset="0.9969" style="stop-color:#111E8E"/>
		</linearGradient>
		<path class="st0" d="M400.1,251.1c-5.4,0-10.4,0-15.9,0c1.2,41.7,2.4,83,3.6,124.7c-8,0-15.6,0-23.2,0c-8.8,0-8.6,0-9.6-8.7
			c-2.6-22.3-5.4-44.6-8.1-67c-0.1-0.8-0.4-1.6-0.8-3.2c-3.2,26.7-6.4,52.6-9.5,78.6c-10.7,0-21.1,0-30.9,0c0-11.1-0.2-22,0-32.9
			c0.9-35.3,2-70.5,3-105.8c0.5-17.5,1.1-35.1,1.3-52.6c0-2.9-0.9-6.1-2.2-8.8c-1.5-3.1-4.3-5.1-8.1-4.4c-9.2,1.6-15.7-2.1-22-8.9
			c-12.5-13.6-26-26.4-39.2-39.4c-5.8-5.7-7.6-12.1-4.9-19.8c0.3-0.9-0.5-2.6-1.4-3.4c-9.5-9.5-19.1-18.9-28.8-28.3
			c-0.8-0.8-1.7-1.4-2.7-2.3c2.5-2.3,4.7-4.4,7.1-6.6c0.6,0.6,1.4,1.3,2.2,2c9.7,9.5,19.4,19,29,28.5c1.1,1.1,1.9,2.1,3.9,1.2
			c6.8-3,12.9-1.5,18.1,3.7c9.9,9.9,19.8,19.8,29.7,29.7c1.6,1.6,3.2,2.3,5.5,2.3c10-0.1,20.1,0.1,30.1-0.1c2.6,0,3.9,0.8,5,3.1
			c4,7.9,8.2,15.6,12.4,23.3c0.5,1,1.8,2.2,2.7,2.1c0.9,0,2.1-1.2,2.7-2.2c4.3-7.9,8.6-15.9,12.7-23.9c0.9-1.8,2.1-2.5,4.1-2.5
			c11,0.2,20.2,4.3,27.3,12.6c4.3,5.1,6.8,10.6,6.7,17.7c-0.3,29-0.1,58-0.1,87C400.1,248.2,400.1,249.5,400.1,251.1z M378.7,367.3
			c-1.6-57.3-3.2-114.1-4.9-170.9c3.3,0,6.1,0,9.1,0c0.4,15.5,0.9,30.7,1.3,46c3,0,5.6,0,8.2,0c0.1-0.5,0.3-0.8,0.3-1.1
			c0-26,0.2-52.1-0.1-78.1c-0.1-11.5-8.7-21.5-19.9-24.4c-2.5-0.6-4.2-0.5-5.5,2.3c-2.5,5.5-5.6,10.7-8.4,16.1
			c-1.7,3.2-2.8,7.6-5.5,9.2c-2.8,1.6-7.3,0.4-11,0.6c-2.1,0.1-3.1-0.6-4.1-2.5c-4.1-8-8.5-15.9-12.6-24c-0.9-1.8-2.1-2.5-4.1-2.4
			c-9.8,0.1-19.6,0-29.4,0.1c-2.3,0-3.9-0.6-5.5-2.3c-10.6-10.8-21.3-21.4-32-32.1c-4.5-4.4-10.7-3.2-12.7,2.5
			c-1.2,3.4,0.4,5.9,2.7,8.2c13.2,13.2,26.6,26.1,39.4,39.7c5.1,5.4,10.3,8.4,17.7,7.2c5.6-0.9,9.7,2.1,13.1,6.2
			c3.6,4.3,5.4,9.3,5.2,15c-0.3,10.8-0.6,21.6-0.9,32.4c-1.5,49.3-2.9,98.5-4.4,147.8c0,1.2,0,2.4,0,3.7c5,0,9.7,0,14.5,0
			c4.5-36.8,8.9-73.4,13.4-110c3,0,5.7,0,8.4,0c0.2,0.9,0.4,1.6,0.5,2.4c2.1,17.1,4.1,34.1,6.2,51.2c2.2,18.4,4.4,36.8,6.7,55.1
			c0.1,0.8,1.4,2,2.2,2C370.4,367.4,374.3,367.3,378.7,367.3z"/>
		<linearGradient id="SVGID_2_" gradientUnits="userSpaceOnUse" x1="-141.4191" y1="100.7717" x2="313.0714" y2="501.4409">
			<stop  offset="0" style="stop-color:#0B5CD0"/>
			<stop  offset="0.9969" style="stop-color:#111E8E"/>
		</linearGradient>
		<path class="st1" d="M2.7,376.1c0.4-12.5,0.2-24.9,1.3-37.1c0.9-9.4,6.5-16.2,15.6-19.6c5.8-2.1,11.6-4.2,17.6-6.4
			c2.6,4.9,5.2,9.6,7.8,14.3c2.1,3.8,4.1,7.6,6.2,11.3c0.5,1,1.5,1.7,2.3,2.5c0.8-0.9,1.7-1.6,2.2-2.6c4.1-7.4,8.1-14.9,12.2-22.3
			c0.5-1,1.1-1.9,1.8-3.2c8.4,3.1,16.7,6.2,25.4,9.5c7.3-10.1,20.3-11.3,31.2-17c3.2,6.1,6.3,11.8,9.3,17.5c2.1,3.9,4,7.8,6.3,11.6
			c0.5,0.9,1.9,2,2.9,2c1,0,2.4-1,2.9-1.9c4.7-8.7,9.4-17.4,13.9-26.3c1.2-2.3,2.2-2.7,4.6-1.7c5.1,2.1,10.3,3.9,15.5,5.7
			c5.7,1.9,10.2,5.5,13.4,9.6c8.7-3.3,16.9-6.5,25.4-9.7c4.5,8.2,8.8,16.1,13.1,24.1c0.4,0.8,0.8,1.6,1.3,2.3c1.5,2.6,3,2.7,4.4,0
			c4.2-7.7,8.4-15.5,12.6-23.2c0.5-0.9,1.1-1.9,1.8-3.1c7,2.7,14.1,4.9,20.7,8c7.3,3.4,11.4,9.9,12.3,17.7c1.4,11.9,2,23.9,2.9,35.9
			c0,0.6,0,1.3,0,2.2C194,376.1,98.8,376.1,2.7,376.1z M183.2,350.1c0.5,5.7,0.9,11,1.3,16.3c3.5,0,6.8,0,10.4,0
			c-1-10.6-1.6-21.1-3.1-31.4c-0.7-5.2-3.5-9.9-8.6-12.2c-4.5-2-9.2-3.4-14-5.1c-5,9.2-9.8,18.1-14.6,27c-0.9,1.7-1.8,2.5-3.8,2.4
			c-4-0.2-8.7,1.2-11.7-0.6c-3-1.7-4.2-6.5-6.1-9.9c-0.4-0.8-0.8-1.6-1.3-2.3c-3-5.5-6-11-9-16.5c-4.5,1.5-8.7,2.8-12.8,4.3
			c-3.2,1.2-5.4,3.4-7.1,6.5c-2.8,5.3-2.9,11-3.5,16.7c-0.7,7-1.2,14-1.8,21.1c3.8,0,7.1,0,10.5,0c0.4-5.5,0.9-10.7,1.3-16.3
			c3.2,0.2,6,0.5,9,0.7c-0.3,5.4-0.7,10.4-1,15.7c19.4,0,38.4,0,57.8,0c-0.3-5.3-0.7-10.4-1-15.7C177.3,350.5,180,350.3,183.2,350.1
			z M88.3,366.5c0.9-10.6,1.6-21,2.9-31.2c0.5-4.1-1.3-6-4.4-7.3c-3.9-1.6-8.1-2.8-12.2-4.2c-3.2,5.8-6.8,11.2-9.2,17
			c-2.9,7.2-7.4,9.9-15,8.8c-2.5-0.4-3.9-1-5-3.2c-4-7.6-8.2-15-12.4-22.7c-3.3,1.1-6.2,2.4-9.3,3c-6.5,1.4-9.1,6-10.5,11.8
			c-0.4,1.7-0.4,3.5-0.6,5.3c-0.6,7.4-1.1,14.9-1.7,22.5c3.1,0,5.8,0,8.6,0c0.3-4.9,0.5-9.6,0.8-14.1c2.4,0,4.2,0.1,6.1,0
			c2.6-0.2,3.1,1,2.9,3.4c-0.3,3.6-0.1,7.2-0.1,10.9C48.9,366.5,68.4,366.5,88.3,366.5z M203.7,366.4c19.7,0,39.2,0,58.7,0
			c0-2.2,0-4.2,0-6.1c-0.2-8.2-0.2-8.2,7.9-8.1c0.2,0,0.4,0.2,0.8,0.4c0.2,4.3,0.5,8.8,0.8,13.3c2.9,0,5.5,0,8.1,0
			c0.1-0.4,0.3-0.8,0.3-1c-0.7-8.9-1.2-17.8-2.2-26.7c-0.4-3.9-2.4-7.5-6.2-9.3c-4.3-2-8.9-3.5-13.5-5.2
			c-4.2,7.6-8.2,14.6-11.9,21.9c-1.6,3.1-3.5,3.7-6.8,4.1c-6.8,0.8-10.6-1.6-13.2-7.9c-2.6-6.2-6.4-12-9.7-18c-3.1,1-6,1.9-8.8,2.9
			c-6.6,2.3-7.7,3.7-7.1,10.6C201.8,347,202.7,356.6,203.7,366.4z"/>
		<linearGradient id="SVGID_3_" gradientUnits="userSpaceOnUse" x1="-1.8108" y1="-57.59" x2="452.6797" y2="343.0793">
			<stop  offset="0" style="stop-color:#0B5CD0"/>
			<stop  offset="0.9969" style="stop-color:#111E8E"/>
		</linearGradient>
		<path class="st2" d="M27,12.5c0,48.7,0,97.1,0,145.8c80.3,0,160.6,0,241,0c0,3.2,0,6,0,9c-86.8,0-173.5,0-260.5,0
			c0-2.9,0-5.7,0-8.9c3.3,0,6.6,0,10,0c0-48.8,0-97.3,0-146c-3.3,0-6.5,0-9.9,0c0-3.1,0-5.9,0-8.9c101.8,0,203.7,0,305.6,0
			c0,2.9,0,5.7,0,8.8c-3.6,0-6.9,0-10.8,0c0,37.3,0,74.4,0,111.7c-3.3,0-6.1,0-9.2,0c0-37.2,0-74.2,0-111.4
			C204.3,12.5,115.8,12.5,27,12.5z"/>
		<linearGradient id="SVGID_4_" gradientUnits="userSpaceOnUse" x1="-32.122" y1="-23.207" x2="422.3684" y2="377.4622">
			<stop  offset="0" style="stop-color:#0B5CD0"/>
			<stop  offset="0.9969" style="stop-color:#111E8E"/>
		</linearGradient>
		<path class="st3" d="M44.8,141.6c0-3,0-5.9,0-8.9c5,0,9.8,0,15,0c0-12.9,0-25.5,0-38.3c3.2,0,6,0,9.2,0c0,12.6,0,25.2,0,38
			c8.5,0,16.6,0,25,0c0-23.4,0-46.8,0-70.4c3.1,0,5.9,0,9.1,0c0,23.4,0,46.8,0,70.4c8.7,0,17.1,0,25.7,0c0-34.2,0-68.4,0-102.8
			c3.2,0,6.1,0,9.2,0c0,34.2,0,68.3,0,102.7c8.7,0,17.1,0,25.8,0c0-17.1,0-34.2,0-51.4c3.2,0,6,0,9.1,0c0,17.2,0,34.2,0,51.5
			c5,0,9.5,0,14.4,0c0,3.2,0,6,0,9.1C139.9,141.6,92.5,141.6,44.8,141.6z"/>
		<linearGradient id="SVGID_5_" gradientUnits="userSpaceOnUse" x1="-103.3769" y1="57.6194" x2="351.1136" y2="458.2886">
			<stop  offset="0" style="stop-color:#0B5CD0"/>
			<stop  offset="0.9969" style="stop-color:#111E8E"/>
		</linearGradient>
		<path class="st4" d="M145.8,305.5c-15.3-0.1-27.9-12.8-27.9-28.1c0.1-15.3,12.8-28,28-28c15.4,0,28.2,13,28,28.3
			C173.9,293,161.1,305.5,145.8,305.5z M145.3,296.3c10.3,0,19-8.6,19-18.9c0-10.3-8.7-19-19-19c-10.3,0-18.9,8.6-18.9,19
			C126.4,287.8,135,296.3,145.3,296.3z"/>
		<linearGradient id="SVGID_6_" gradientUnits="userSpaceOnUse" x1="-68.4586" y1="18.0105" x2="386.0319" y2="418.6797">
			<stop  offset="0" style="stop-color:#0B5CD0"/>
			<stop  offset="0.9969" style="stop-color:#111E8E"/>
		</linearGradient>
		<path class="st5" d="M263.2,288c0,14.1-11.7,25.6-25.8,25.4c-14-0.1-25.3-11.5-25.3-25.6c0-14.2,11.5-25.6,25.6-25.6
			C251.8,262.2,263.2,273.8,263.2,288z M237.1,271.4c-9.3-0.1-16.6,7.1-16.5,16.5c0,9.2,7.1,16.3,16.3,16.4
			c9.2,0.1,16.6-7.2,16.6-16.5C253.4,278.6,246.3,271.4,237.1,271.4z"/>
		<linearGradient id="SVGID_7_" gradientUnits="userSpaceOnUse" x1="-148.8586" y1="109.2105" x2="305.6319" y2="509.8797">
			<stop  offset="0" style="stop-color:#0B5CD0"/>
			<stop  offset="0.9969" style="stop-color:#111E8E"/>
		</linearGradient>
		<path class="st6" d="M53.7,313.4c-14.2,0-25.6-11.5-25.6-25.7c0-14.1,11.6-25.6,25.7-25.5c14,0,25.4,11.5,25.4,25.5
			C79.4,301.9,67.9,313.4,53.7,313.4z M37.3,287.8c0,9.3,7.3,16.6,16.6,16.5c9.1-0.1,16.3-7.4,16.3-16.5c0-9.1-7.2-16.4-16.3-16.4
			C44.5,271.3,37.3,278.5,37.3,287.8z"/>
		<linearGradient id="SVGID_8_" gradientUnits="userSpaceOnUse" x1="71.1226" y1="-140.3204" x2="525.613" y2="260.3488">
			<stop  offset="0" style="stop-color:#0B5CD0"/>
			<stop  offset="0.9969" style="stop-color:#111E8E"/>
		</linearGradient>
		<path class="st7" d="M323.2,103.4c0-13.5,10.8-24.4,24.3-24.4c13.5,0,24.4,10.9,24.5,24.4c0,13.4-11,24.5-24.4,24.5
			C334.1,127.8,323.2,116.9,323.2,103.4z M332.3,104.4c0.1,8.3,7.1,15,15.4,14.8c8.4-0.1,15.1-6.9,15.1-15.3
			c0-8.5-6.8-15.3-15.4-15.2C339.3,88.8,332.3,96.1,332.3,104.4z"/>
	</g>
</g>
</svg>
