<?xml version="1.0" encoding="utf-8"?>
<!-- Generator: Adobe Illustrator 22.0.1, SVG Export Plug-In . SVG Version: 6.00 Build 0)  -->
<svg version="1.1" id="Layer_1" xmlns="http://www.w3.org/2000/svg" xmlns:xlink="http://www.w3.org/1999/xlink" x="0px" y="0px"
	 viewBox="0 0 468.1 481.2" style="enable-background:new 0 0 468.1 481.2;" xml:space="preserve">
<style type="text/css">
	.st0{fill:url(#SVGID_1_);}
	.st1{fill:url(#SVGID_2_);}
	.st2{fill:url(#SVGID_3_);}
	.st3{fill:url(#SVGID_4_);}
	.st4{fill:url(#SVGID_5_);}
	.st5{fill:url(#SVGID_6_);}
	.st6{fill:url(#SVGID_7_);}
</style>
<g>
	<linearGradient id="SVGID_1_" gradientUnits="userSpaceOnUse" x1="46.6315" y1="46.0743" x2="408.7756" y2="425.4633">
		<stop  offset="0" style="stop-color:#0B5CD0"/>
		<stop  offset="0.9969" style="stop-color:#111E8E"/>
	</linearGradient>
	<path class="st0" d="M463,354.4c-24.4,0-48.6,0-73.4,0c0,41.5,0,82.4,0,123.7c-129,0-257.2,0-386,0c0-116.2,0-232.4,0-349.2
		c24.3,0,48.5,0,73.4,0c0-41.4,0-82.3,0-123.6c129,0,257.2,0,386,0C463,121.3,463,237.3,463,354.4z M374,205.4
		c-119,0-237.3,0-355.5,0c0,86,0,171.3,0,257c118.7,0,236.9,0,355.5,0C374,376.6,374,291.2,374,205.4z M448.2,338.6
		c0-86.2,0-171.5,0-256.9c-118.7,0-237,0-355.3,0c0,15.9,0,31.2,0,47.3c99.1,0,197.7,0,297,0c0,70.3,0,140,0,209.6
		C409.7,338.6,428.7,338.6,448.2,338.6z M448.2,20.9c-118.7,0-237,0-355.5,0c0,15,0,29.5,0,44.2c118.7,0,237,0,355.5,0
		C448.2,50.1,448.2,35.7,448.2,20.9z M18.3,188.8c118.8,0,237.1,0,355.6,0c0-14.9,0-29.4,0-44.1c-118.7,0-237,0-355.6,0
		C18.3,159.6,18.3,173.9,18.3,188.8z"/>
	<linearGradient id="SVGID_2_" gradientUnits="userSpaceOnUse" x1="-19.0154" y1="108.7372" x2="343.1288" y2="488.1263">
		<stop  offset="0" style="stop-color:#0B5CD0"/>
		<stop  offset="0.9969" style="stop-color:#111E8E"/>
	</linearGradient>
	<path class="st1" d="M315.1,422.8c-79.1,0-158,0-237.4,0c0-58.7,0-117.5,0-176.8c78.9,0,157.9,0,237.4,0
		C315.1,304.9,315.1,363.7,315.1,422.8z M92.7,407.3c69.5,0,138.2,0,207.2,0c0-48.9,0-97.4,0-146c-69.3,0-138,0-207.2,0
		C92.7,310,92.7,358.3,92.7,407.3z"/>
	<linearGradient id="SVGID_3_" gradientUnits="userSpaceOnUse" x1="243.4517" y1="-141.7995" x2="605.5958" y2="237.5895">
		<stop  offset="0" style="stop-color:#0B5CD0"/>
		<stop  offset="0.9969" style="stop-color:#111E8E"/>
	</linearGradient>
	<path class="st2" d="M412.4,49.3c0-4.5,0-8.4,0-12.9c4.8,0,9.5,0,14.7,0c0,4.2,0,8.3,0,12.9C422.3,49.3,417.7,49.3,412.4,49.3z"/>
	<linearGradient id="SVGID_4_" gradientUnits="userSpaceOnUse" x1="228.1473" y1="-127.1908" x2="590.2914" y2="252.1983">
		<stop  offset="0" style="stop-color:#0B5CD0"/>
		<stop  offset="0.9969" style="stop-color:#111E8E"/>
	</linearGradient>
	<path class="st3" d="M383.1,36.1c5,0,9.4,0,14.3,0c0,4.4,0,8.5,0,13.1c-4.6,0-9.1,0-14.3,0C383.1,45.1,383.1,40.9,383.1,36.1z"/>
	<linearGradient id="SVGID_5_" gradientUnits="userSpaceOnUse" x1="142.7639" y1="-45.6885" x2="504.908" y2="333.7006">
		<stop  offset="0" style="stop-color:#0B5CD0"/>
		<stop  offset="0.9969" style="stop-color:#111E8E"/>
	</linearGradient>
	<path class="st4" d="M352.7,173.3c-4.8,0-9.4,0-14.5,0c0-4.5,0-8.7,0-13.3c4.9,0,9.5,0,14.5,0C352.7,164.4,352.7,168.6,352.7,173.3
		z"/>
	<linearGradient id="SVGID_6_" gradientUnits="userSpaceOnUse" x1="127.3793" y1="-31.0032" x2="489.5234" y2="348.3859">
		<stop  offset="0" style="stop-color:#0B5CD0"/>
		<stop  offset="0.9969" style="stop-color:#111E8E"/>
	</linearGradient>
	<path class="st5" d="M323.4,160.1c0,4.6,0,8.6,0,13.1c-5,0-9.7,0-14.8,0c0-4.5,0-8.6,0-13.1C313.6,160.1,318.2,160.1,323.4,160.1z"
		/>
	<linearGradient id="SVGID_7_" gradientUnits="userSpaceOnUse" x1="-26.0387" y1="115.4412" x2="336.1054" y2="494.8303">
		<stop  offset="0" style="stop-color:#0B5CD0"/>
		<stop  offset="0.9969" style="stop-color:#111E8E"/>
	</linearGradient>
	<path class="st6" d="M164.9,393.8c0-37.6,0-73.8,0-111.3c32.3,18.6,63.8,36.8,96.5,55.7C228.9,356.9,197.3,375.1,164.9,393.8z
		 M179.8,367.4c17.3-9.9,33.6-19.3,50.8-29.2c-17.4-10-33.8-19.5-50.8-29.3C179.8,328.7,179.8,347.4,179.8,367.4z"/>
</g>
</svg>
